<mxfile host="Electron" agent="Mozilla/5.0 (Macintosh; Intel Mac OS X 10_15_7) AppleWebKit/537.36 (KHTML, like Gecko) draw.io/24.7.8 Chrome/128.0.6613.36 Electron/32.0.1 Safari/537.36" version="24.7.8">
  <diagram name="Página-1" id="TE4-7IMHZLEr0LoTM9oO">
    <mxGraphModel dx="1397" dy="1857" grid="1" gridSize="10" guides="1" tooltips="1" connect="1" arrows="1" fold="1" page="1" pageScale="1" pageWidth="827" pageHeight="1169" math="0" shadow="0">
      <root>
        <mxCell id="0" />
        <mxCell id="1" parent="0" />
        <mxCell id="rqkGrwpuwZyJRBmfCaUI-1" value="Académico" style="shape=umlActor;verticalLabelPosition=bottom;verticalAlign=top;html=1;" parent="1" vertex="1">
          <mxGeometry x="30" y="697" width="50" height="90" as="geometry" />
        </mxCell>
        <mxCell id="rqkGrwpuwZyJRBmfCaUI-5" value="recupera y muestra" style="ellipse;shape=umlControl;whiteSpace=wrap;html=1;fillColor=#99FFFF;" parent="1" vertex="1">
          <mxGeometry x="210" y="570" width="70" height="80" as="geometry" />
        </mxCell>
        <mxCell id="rqkGrwpuwZyJRBmfCaUI-12" value="" style="group" parent="1" vertex="1" connectable="0">
          <mxGeometry x="780" y="441" width="150" height="90" as="geometry" />
        </mxCell>
        <mxCell id="rqkGrwpuwZyJRBmfCaUI-6" value="" style="ellipse;shape=umlEntity;whiteSpace=wrap;html=1;fillColor=#99FFFF;" parent="rqkGrwpuwZyJRBmfCaUI-12" vertex="1">
          <mxGeometry x="10" width="60" height="60" as="geometry" />
        </mxCell>
        <mxCell id="rqkGrwpuwZyJRBmfCaUI-8" value="REPORTE" style="text;html=1;align=center;verticalAlign=middle;resizable=0;points=[];autosize=1;strokeColor=none;fillColor=none;" parent="rqkGrwpuwZyJRBmfCaUI-12" vertex="1">
          <mxGeometry y="60" width="80" height="30" as="geometry" />
        </mxCell>
        <mxCell id="rqkGrwpuwZyJRBmfCaUI-13" value="" style="group" parent="1" vertex="1" connectable="0">
          <mxGeometry x="520" y="527" width="100" height="93" as="geometry" />
        </mxCell>
        <mxCell id="rqkGrwpuwZyJRBmfCaUI-7" value="" style="ellipse;shape=umlEntity;whiteSpace=wrap;html=1;fillColor=#99FFFF;" parent="rqkGrwpuwZyJRBmfCaUI-13" vertex="1">
          <mxGeometry x="20" width="60" height="60" as="geometry" />
        </mxCell>
        <mxCell id="rqkGrwpuwZyJRBmfCaUI-9" value="ESTUDIANTE" style="text;html=1;align=center;verticalAlign=middle;resizable=0;points=[];autosize=1;strokeColor=none;fillColor=none;" parent="rqkGrwpuwZyJRBmfCaUI-13" vertex="1">
          <mxGeometry y="63" width="100" height="30" as="geometry" />
        </mxCell>
        <mxCell id="rqkGrwpuwZyJRBmfCaUI-22" value="mostrar" style="ellipse;shape=umlControl;whiteSpace=wrap;html=1;fillColor=#99FFFF;" parent="1" vertex="1">
          <mxGeometry x="440" y="697" width="70" height="80" as="geometry" />
        </mxCell>
        <mxCell id="rqkGrwpuwZyJRBmfCaUI-26" value="" style="group" parent="1" vertex="1" connectable="0">
          <mxGeometry x="180" y="707" width="130" height="92" as="geometry" />
        </mxCell>
        <mxCell id="rqkGrwpuwZyJRBmfCaUI-3" value="" style="shape=umlBoundary;whiteSpace=wrap;html=1;fillColor=#99FFFF;" parent="rqkGrwpuwZyJRBmfCaUI-26" vertex="1">
          <mxGeometry x="25" width="80" height="70" as="geometry" />
        </mxCell>
        <mxCell id="rqkGrwpuwZyJRBmfCaUI-4" value="FXMLElegirReporte" style="text;html=1;align=center;verticalAlign=middle;resizable=0;points=[];autosize=1;strokeColor=none;fillColor=none;" parent="rqkGrwpuwZyJRBmfCaUI-26" vertex="1">
          <mxGeometry y="62" width="130" height="30" as="geometry" />
        </mxCell>
        <mxCell id="rqkGrwpuwZyJRBmfCaUI-28" value="" style="endArrow=none;html=1;rounded=0;entryX=0.015;entryY=0.514;entryDx=0;entryDy=0;entryPerimeter=0;" parent="1" source="rqkGrwpuwZyJRBmfCaUI-1" target="rqkGrwpuwZyJRBmfCaUI-3" edge="1">
          <mxGeometry width="50" height="50" relative="1" as="geometry">
            <mxPoint x="310" y="760" as="sourcePoint" />
            <mxPoint x="360" y="710" as="targetPoint" />
          </mxGeometry>
        </mxCell>
        <mxCell id="rqkGrwpuwZyJRBmfCaUI-29" value="&lt;font style=&quot;font-size: 8px;&quot;&gt;clic botón Validar Reportes&lt;/font&gt;" style="text;html=1;align=center;verticalAlign=middle;resizable=0;points=[];autosize=1;strokeColor=none;fillColor=none;" parent="1" vertex="1">
          <mxGeometry x="80" y="713" width="120" height="30" as="geometry" />
        </mxCell>
        <mxCell id="rqkGrwpuwZyJRBmfCaUI-30" value="" style="endArrow=none;html=1;rounded=0;entryX=0.504;entryY=1.015;entryDx=0;entryDy=0;entryPerimeter=0;" parent="1" target="rqkGrwpuwZyJRBmfCaUI-5" edge="1">
          <mxGeometry width="50" height="50" relative="1" as="geometry">
            <mxPoint x="245" y="710" as="sourcePoint" />
            <mxPoint x="290" y="650" as="targetPoint" />
          </mxGeometry>
        </mxCell>
        <mxCell id="rqkGrwpuwZyJRBmfCaUI-32" value="" style="endArrow=none;html=1;rounded=0;exitX=0.741;exitY=0.171;exitDx=0;exitDy=0;exitPerimeter=0;entryX=0.026;entryY=0.696;entryDx=0;entryDy=0;entryPerimeter=0;" parent="1" source="rqkGrwpuwZyJRBmfCaUI-5" target="rqkGrwpuwZyJRBmfCaUI-6" edge="1">
          <mxGeometry width="50" height="50" relative="1" as="geometry">
            <mxPoint x="270" y="584" as="sourcePoint" />
            <mxPoint x="460" y="480" as="targetPoint" />
            <Array as="points">
              <mxPoint x="320" y="584" />
              <mxPoint x="320" y="480" />
            </Array>
          </mxGeometry>
        </mxCell>
        <mxCell id="rqkGrwpuwZyJRBmfCaUI-33" value="" style="endArrow=none;html=1;rounded=0;entryX=0.034;entryY=0.683;entryDx=0;entryDy=0;entryPerimeter=0;" parent="1" target="rqkGrwpuwZyJRBmfCaUI-7" edge="1">
          <mxGeometry width="50" height="50" relative="1" as="geometry">
            <mxPoint x="276" y="598" as="sourcePoint" />
            <mxPoint x="536" y="568" as="targetPoint" />
            <Array as="points">
              <mxPoint x="356" y="598" />
              <mxPoint x="356" y="568" />
            </Array>
          </mxGeometry>
        </mxCell>
        <mxCell id="rqkGrwpuwZyJRBmfCaUI-34" value="" style="endArrow=none;html=1;rounded=0;exitX=0.916;exitY=0.808;exitDx=0;exitDy=0;exitPerimeter=0;entryX=-0.019;entryY=0.519;entryDx=0;entryDy=0;entryPerimeter=0;" parent="1" source="rqkGrwpuwZyJRBmfCaUI-5" target="rqkGrwpuwZyJRBmfCaUI-22" edge="1">
          <mxGeometry width="50" height="50" relative="1" as="geometry">
            <mxPoint x="270.98" y="638.6400000000001" as="sourcePoint" />
            <mxPoint x="440" y="710" as="targetPoint" />
            <Array as="points">
              <mxPoint x="360" y="636" />
              <mxPoint x="360" y="740" />
            </Array>
          </mxGeometry>
        </mxCell>
        <mxCell id="rqkGrwpuwZyJRBmfCaUI-35" value="" style="group" parent="1" vertex="1" connectable="0">
          <mxGeometry x="580" y="604" width="100" height="93" as="geometry" />
        </mxCell>
        <mxCell id="rqkGrwpuwZyJRBmfCaUI-36" value="" style="ellipse;shape=umlEntity;whiteSpace=wrap;html=1;fillColor=#99FFFF;" parent="rqkGrwpuwZyJRBmfCaUI-35" vertex="1">
          <mxGeometry x="20" width="60" height="60" as="geometry" />
        </mxCell>
        <mxCell id="rqkGrwpuwZyJRBmfCaUI-37" value="PROYECTO" style="text;html=1;align=center;verticalAlign=middle;resizable=0;points=[];autosize=1;strokeColor=none;fillColor=none;" parent="rqkGrwpuwZyJRBmfCaUI-35" vertex="1">
          <mxGeometry x="5" y="63" width="90" height="30" as="geometry" />
        </mxCell>
        <mxCell id="rqkGrwpuwZyJRBmfCaUI-38" value="" style="endArrow=none;html=1;rounded=0;entryX=0.567;entryY=0.946;entryDx=0;entryDy=0;entryPerimeter=0;exitX=0.9;exitY=0.307;exitDx=0;exitDy=0;exitPerimeter=0;" parent="1" source="rqkGrwpuwZyJRBmfCaUI-22" target="rqkGrwpuwZyJRBmfCaUI-37" edge="1">
          <mxGeometry width="50" height="50" relative="1" as="geometry">
            <mxPoint x="510" y="731" as="sourcePoint" />
            <mxPoint x="590" y="720" as="targetPoint" />
            <Array as="points">
              <mxPoint x="636" y="722" />
            </Array>
          </mxGeometry>
        </mxCell>
        <mxCell id="rqkGrwpuwZyJRBmfCaUI-39" value="selecciona y&amp;nbsp;&lt;div&gt;clic en Aceptar&lt;/div&gt;" style="text;html=1;align=center;verticalAlign=middle;resizable=0;points=[];autosize=1;strokeColor=none;fillColor=none;" parent="1" vertex="1">
          <mxGeometry x="357" y="650" width="100" height="40" as="geometry" />
        </mxCell>
        <mxCell id="rqkGrwpuwZyJRBmfCaUI-41" value="" style="endArrow=none;html=1;rounded=0;exitX=0.847;exitY=0.236;exitDx=0;exitDy=0;exitPerimeter=0;entryX=0.398;entryY=1.008;entryDx=0;entryDy=0;entryPerimeter=0;" parent="1" source="rqkGrwpuwZyJRBmfCaUI-22" target="rqkGrwpuwZyJRBmfCaUI-9" edge="1">
          <mxGeometry width="50" height="50" relative="1" as="geometry">
            <mxPoint x="500" y="710" as="sourcePoint" />
            <mxPoint x="560" y="650" as="targetPoint" />
            <Array as="points">
              <mxPoint x="500" y="650" />
              <mxPoint x="560" y="650" />
            </Array>
          </mxGeometry>
        </mxCell>
        <mxCell id="rqkGrwpuwZyJRBmfCaUI-45" value="" style="endArrow=none;html=1;rounded=0;exitX=0.989;exitY=0.487;exitDx=0;exitDy=0;exitPerimeter=0;entryX=-0.004;entryY=0.502;entryDx=0;entryDy=0;entryPerimeter=0;" parent="1" source="rqkGrwpuwZyJRBmfCaUI-22" target="rqkGrwpuwZyJRBmfCaUI-43" edge="1">
          <mxGeometry width="50" height="50" relative="1" as="geometry">
            <mxPoint x="506.03999999999996" y="735.8" as="sourcePoint" />
            <mxPoint x="686.9200000000001" y="738.3799999999999" as="targetPoint" />
          </mxGeometry>
        </mxCell>
        <mxCell id="rqkGrwpuwZyJRBmfCaUI-46" value="" style="group" parent="1" vertex="1" connectable="0">
          <mxGeometry x="666" y="702" width="130" height="92" as="geometry" />
        </mxCell>
        <mxCell id="rqkGrwpuwZyJRBmfCaUI-43" value="" style="shape=umlBoundary;whiteSpace=wrap;html=1;fillColor=#99FFFF;" parent="rqkGrwpuwZyJRBmfCaUI-46" vertex="1">
          <mxGeometry x="19" width="80" height="70" as="geometry" />
        </mxCell>
        <mxCell id="rqkGrwpuwZyJRBmfCaUI-44" value="FXMLValidarReporte" style="text;html=1;align=center;verticalAlign=middle;resizable=0;points=[];autosize=1;strokeColor=none;fillColor=none;" parent="rqkGrwpuwZyJRBmfCaUI-46" vertex="1">
          <mxGeometry y="62" width="130" height="30" as="geometry" />
        </mxCell>
        <mxCell id="rqkGrwpuwZyJRBmfCaUI-47" value="" style="endArrow=none;html=1;rounded=0;exitX=0.992;exitY=0.479;exitDx=0;exitDy=0;exitPerimeter=0;" parent="rqkGrwpuwZyJRBmfCaUI-46" source="rqkGrwpuwZyJRBmfCaUI-43" edge="1">
          <mxGeometry width="50" height="50" relative="1" as="geometry">
            <mxPoint x="114" y="48" as="sourcePoint" />
            <mxPoint x="194" y="34" as="targetPoint" />
          </mxGeometry>
        </mxCell>
        <mxCell id="rqkGrwpuwZyJRBmfCaUI-48" value="&lt;font style=&quot;font-size: 8px;&quot;&gt;clic en Ver Reporte&lt;/font&gt;" style="text;html=1;align=center;verticalAlign=middle;resizable=0;points=[];autosize=1;strokeColor=none;fillColor=none;" parent="1" vertex="1">
          <mxGeometry x="760" y="707" width="90" height="30" as="geometry" />
        </mxCell>
        <mxCell id="rqkGrwpuwZyJRBmfCaUI-49" value="mostrar reporte" style="ellipse;shape=umlControl;whiteSpace=wrap;html=1;fillColor=#99FFFF;" parent="1" vertex="1">
          <mxGeometry x="860" y="690" width="70" height="80" as="geometry" />
        </mxCell>
        <mxCell id="rqkGrwpuwZyJRBmfCaUI-50" value="" style="group" parent="1" vertex="1" connectable="0">
          <mxGeometry x="1020" y="696" width="130" height="92" as="geometry" />
        </mxCell>
        <mxCell id="rqkGrwpuwZyJRBmfCaUI-51" value="" style="shape=umlBoundary;whiteSpace=wrap;html=1;fillColor=#99FFFF;" parent="rqkGrwpuwZyJRBmfCaUI-50" vertex="1">
          <mxGeometry x="19" width="80" height="70" as="geometry" />
        </mxCell>
        <mxCell id="rqkGrwpuwZyJRBmfCaUI-52" value="FXMLVerReporte" style="text;html=1;align=center;verticalAlign=middle;resizable=0;points=[];autosize=1;strokeColor=none;fillColor=none;" parent="rqkGrwpuwZyJRBmfCaUI-50" vertex="1">
          <mxGeometry x="5" y="62" width="120" height="30" as="geometry" />
        </mxCell>
        <mxCell id="rqkGrwpuwZyJRBmfCaUI-54" value="" style="endArrow=none;html=1;rounded=0;exitX=1.004;exitY=0.498;exitDx=0;exitDy=0;exitPerimeter=0;entryX=-0.004;entryY=0.468;entryDx=0;entryDy=0;entryPerimeter=0;" parent="1" source="rqkGrwpuwZyJRBmfCaUI-49" target="rqkGrwpuwZyJRBmfCaUI-51" edge="1">
          <mxGeometry width="50" height="50" relative="1" as="geometry">
            <mxPoint x="960" y="780" as="sourcePoint" />
            <mxPoint x="1010" y="730" as="targetPoint" />
          </mxGeometry>
        </mxCell>
        <mxCell id="rqkGrwpuwZyJRBmfCaUI-55" value="regresar" style="ellipse;shape=umlControl;whiteSpace=wrap;html=1;fillColor=#99FFFF;" parent="1" vertex="1">
          <mxGeometry x="1050" y="820" width="70" height="80" as="geometry" />
        </mxCell>
        <mxCell id="rqkGrwpuwZyJRBmfCaUI-56" value="" style="endArrow=none;html=1;rounded=0;entryX=0.417;entryY=0.99;entryDx=0;entryDy=0;entryPerimeter=0;exitX=0.341;exitY=0.147;exitDx=0;exitDy=0;exitPerimeter=0;" parent="1" source="rqkGrwpuwZyJRBmfCaUI-55" target="rqkGrwpuwZyJRBmfCaUI-52" edge="1">
          <mxGeometry width="50" height="50" relative="1" as="geometry">
            <mxPoint x="1050" y="840" as="sourcePoint" />
            <mxPoint x="1100" y="790" as="targetPoint" />
          </mxGeometry>
        </mxCell>
        <mxCell id="rqkGrwpuwZyJRBmfCaUI-57" value="&lt;font style=&quot;font-size: 8px;&quot;&gt;clic Cerrar&lt;/font&gt;" style="text;html=1;align=center;verticalAlign=middle;resizable=0;points=[];autosize=1;strokeColor=none;fillColor=none;" parent="1" vertex="1">
          <mxGeometry x="1064" y="787" width="60" height="30" as="geometry" />
        </mxCell>
        <mxCell id="rqkGrwpuwZyJRBmfCaUI-58" value="" style="endArrow=none;html=1;rounded=0;entryX=0.002;entryY=0.627;entryDx=0;entryDy=0;entryPerimeter=0;exitX=0.994;exitY=0.521;exitDx=0;exitDy=0;exitPerimeter=0;" parent="1" source="rqkGrwpuwZyJRBmfCaUI-44" target="rqkGrwpuwZyJRBmfCaUI-55" edge="1">
          <mxGeometry width="50" height="50" relative="1" as="geometry">
            <mxPoint x="800" y="780" as="sourcePoint" />
            <mxPoint x="980" y="870" as="targetPoint" />
            <Array as="points">
              <mxPoint x="980" y="780" />
              <mxPoint x="980" y="870" />
            </Array>
          </mxGeometry>
        </mxCell>
        <mxCell id="rqkGrwpuwZyJRBmfCaUI-59" value="" style="endArrow=none;html=1;rounded=0;exitX=0.997;exitY=0.527;exitDx=0;exitDy=0;exitPerimeter=0;" parent="1" source="rqkGrwpuwZyJRBmfCaUI-55" edge="1">
          <mxGeometry width="50" height="50" relative="1" as="geometry">
            <mxPoint x="1130" y="870" as="sourcePoint" />
            <mxPoint x="1260" y="862" as="targetPoint" />
          </mxGeometry>
        </mxCell>
        <mxCell id="rqkGrwpuwZyJRBmfCaUI-60" value="&lt;font style=&quot;font-size: 6px;&quot;&gt;llena los campos (calificación, observaciones)&amp;nbsp;&lt;/font&gt;&lt;div&gt;&lt;font style=&quot;font-size: 6px;&quot;&gt;y da clic en Aceptar&lt;/font&gt;&lt;/div&gt;" style="text;html=1;align=center;verticalAlign=middle;resizable=0;points=[];autosize=1;strokeColor=none;fillColor=none;" parent="1" vertex="1">
          <mxGeometry x="1110" y="829" width="150" height="40" as="geometry" />
        </mxCell>
        <mxCell id="rqkGrwpuwZyJRBmfCaUI-61" value="" style="endArrow=none;html=1;rounded=0;exitX=0.283;exitY=0.165;exitDx=0;exitDy=0;exitPerimeter=0;entryX=0.257;entryY=0.945;entryDx=0;entryDy=0;entryPerimeter=0;" parent="1" source="rqkGrwpuwZyJRBmfCaUI-22" target="rqkGrwpuwZyJRBmfCaUI-6" edge="1">
          <mxGeometry width="50" height="50" relative="1" as="geometry">
            <mxPoint x="460" y="580" as="sourcePoint" />
            <mxPoint x="870" y="498" as="targetPoint" />
            <Array as="points">
              <mxPoint x="460" y="500" />
            </Array>
          </mxGeometry>
        </mxCell>
        <mxCell id="rqkGrwpuwZyJRBmfCaUI-62" value="valida y guarda" style="ellipse;shape=umlControl;whiteSpace=wrap;html=1;fillColor=#99FFFF;" parent="1" vertex="1">
          <mxGeometry x="1260" y="817" width="70" height="80" as="geometry" />
        </mxCell>
        <mxCell id="rqkGrwpuwZyJRBmfCaUI-63" value="" style="endArrow=none;html=1;rounded=0;entryX=1;entryY=0.5;entryDx=0;entryDy=0;exitX=0.857;exitY=0.261;exitDx=0;exitDy=0;exitPerimeter=0;" parent="1" source="rqkGrwpuwZyJRBmfCaUI-62" target="rqkGrwpuwZyJRBmfCaUI-6" edge="1">
          <mxGeometry width="50" height="50" relative="1" as="geometry">
            <mxPoint x="1320" y="800" as="sourcePoint" />
            <mxPoint x="1270" y="690" as="targetPoint" />
            <Array as="points">
              <mxPoint x="1320" y="471" />
            </Array>
          </mxGeometry>
        </mxCell>
        <mxCell id="rqkGrwpuwZyJRBmfCaUI-64" value="" style="ellipse;shape=umlControl;whiteSpace=wrap;html=1;fillColor=#FF6666;" parent="1" vertex="1">
          <mxGeometry x="610" y="910" width="70" height="80" as="geometry" />
        </mxCell>
        <mxCell id="rqkGrwpuwZyJRBmfCaUI-65" value="&lt;font style=&quot;font-size: 9px;&quot;&gt;&lt;font style=&quot;&quot;&gt;mostrarMensaje:&amp;nbsp;&lt;/font&gt;&lt;/font&gt;&lt;div&gt;&lt;font style=&quot;font-size: 9px;&quot;&gt;&lt;span style=&quot;background-color: initial;&quot;&gt;&quot;¿Está seguro que deseas cancelar?&quot;&lt;/span&gt;&lt;/font&gt;&lt;/div&gt;" style="text;html=1;align=center;verticalAlign=middle;resizable=0;points=[];autosize=1;strokeColor=none;fillColor=none;" parent="1" vertex="1">
          <mxGeometry x="560" y="1000" width="170" height="40" as="geometry" />
        </mxCell>
        <mxCell id="rqkGrwpuwZyJRBmfCaUI-66" value="" style="endArrow=none;html=1;rounded=0;entryX=-0.003;entryY=0.615;entryDx=0;entryDy=0;entryPerimeter=0;exitX=0.463;exitY=1.052;exitDx=0;exitDy=0;exitPerimeter=0;" parent="1" source="rqkGrwpuwZyJRBmfCaUI-4" target="rqkGrwpuwZyJRBmfCaUI-64" edge="1">
          <mxGeometry width="50" height="50" relative="1" as="geometry">
            <mxPoint x="250" y="889" as="sourcePoint" />
            <mxPoint x="359.99999999999994" y="850" as="targetPoint" />
            <Array as="points">
              <mxPoint x="240" y="959" />
            </Array>
          </mxGeometry>
        </mxCell>
        <mxCell id="rqkGrwpuwZyJRBmfCaUI-68" value="clic Cancelar" style="text;html=1;align=center;verticalAlign=middle;resizable=0;points=[];autosize=1;strokeColor=none;fillColor=none;" parent="1" vertex="1">
          <mxGeometry x="310" y="935" width="90" height="30" as="geometry" />
        </mxCell>
        <mxCell id="rqkGrwpuwZyJRBmfCaUI-69" value="" style="endArrow=none;html=1;rounded=0;entryX=0.587;entryY=1;entryDx=0;entryDy=0;entryPerimeter=0;exitX=0.103;exitY=0.285;exitDx=0;exitDy=0;exitPerimeter=0;" parent="1" source="rqkGrwpuwZyJRBmfCaUI-64" target="rqkGrwpuwZyJRBmfCaUI-5" edge="1">
          <mxGeometry width="50" height="50" relative="1" as="geometry">
            <mxPoint x="490" y="900" as="sourcePoint" />
            <mxPoint x="490" y="800" as="targetPoint" />
            <Array as="points">
              <mxPoint x="617" y="880" />
              <mxPoint x="480" y="880" />
              <mxPoint x="480" y="800" />
              <mxPoint x="320" y="800" />
              <mxPoint x="320" y="650" />
            </Array>
          </mxGeometry>
        </mxCell>
        <mxCell id="rqkGrwpuwZyJRBmfCaUI-70" value="clic Cancelar" style="text;html=1;align=center;verticalAlign=middle;resizable=0;points=[];autosize=1;strokeColor=none;fillColor=none;" parent="1" vertex="1">
          <mxGeometry x="369" y="799" width="90" height="30" as="geometry" />
        </mxCell>
        <mxCell id="rqkGrwpuwZyJRBmfCaUI-71" value="" style="endArrow=none;html=1;rounded=0;entryX=0.033;entryY=0.76;entryDx=0;entryDy=0;entryPerimeter=0;exitX=0.857;exitY=0.278;exitDx=0;exitDy=0;exitPerimeter=0;" parent="1" source="rqkGrwpuwZyJRBmfCaUI-64" target="rqkGrwpuwZyJRBmfCaUI-49" edge="1">
          <mxGeometry width="50" height="50" relative="1" as="geometry">
            <mxPoint x="670" y="880" as="sourcePoint" />
            <mxPoint x="810" y="860" as="targetPoint" />
            <Array as="points">
              <mxPoint x="670" y="880" />
              <mxPoint x="790" y="880" />
              <mxPoint x="790" y="750" />
            </Array>
          </mxGeometry>
        </mxCell>
        <mxCell id="rqkGrwpuwZyJRBmfCaUI-72" value="" style="endArrow=none;html=1;rounded=0;entryX=0.486;entryY=1.007;entryDx=0;entryDy=0;entryPerimeter=0;exitX=0.643;exitY=0.125;exitDx=0;exitDy=0;exitPerimeter=0;" parent="1" source="rqkGrwpuwZyJRBmfCaUI-74" target="rqkGrwpuwZyJRBmfCaUI-49" edge="1">
          <mxGeometry width="50" height="50" relative="1" as="geometry">
            <mxPoint x="894" y="900" as="sourcePoint" />
            <mxPoint x="930" y="800" as="targetPoint" />
          </mxGeometry>
        </mxCell>
        <mxCell id="rqkGrwpuwZyJRBmfCaUI-73" value="clic Aceptar" style="text;html=1;align=center;verticalAlign=middle;resizable=0;points=[];autosize=1;strokeColor=none;fillColor=none;" parent="1" vertex="1">
          <mxGeometry x="820" y="817" width="80" height="30" as="geometry" />
        </mxCell>
        <mxCell id="rqkGrwpuwZyJRBmfCaUI-74" value="" style="ellipse;shape=umlControl;whiteSpace=wrap;html=1;fillColor=#FF6666;" parent="1" vertex="1">
          <mxGeometry x="850" y="965" width="70" height="80" as="geometry" />
        </mxCell>
        <mxCell id="rqkGrwpuwZyJRBmfCaUI-75" value="&lt;font style=&quot;font-size: 9px;&quot;&gt;&lt;font style=&quot;&quot;&gt;mostrarMensaje:&amp;nbsp;&lt;/font&gt;&lt;/font&gt;&lt;div&gt;&lt;font style=&quot;font-size: 9px;&quot;&gt;&lt;span style=&quot;background-color: initial;&quot;&gt;&quot;Aun no llenas los campos correspondientes&quot;&lt;/span&gt;&lt;/font&gt;&lt;/div&gt;" style="text;html=1;align=center;verticalAlign=middle;resizable=0;points=[];autosize=1;strokeColor=none;fillColor=none;" parent="1" vertex="1">
          <mxGeometry x="790" y="1050" width="200" height="40" as="geometry" />
        </mxCell>
        <mxCell id="rqkGrwpuwZyJRBmfCaUI-76" value="" style="ellipse;shape=umlControl;whiteSpace=wrap;html=1;fillColor=#FF6666;" parent="1" vertex="1">
          <mxGeometry x="1140" y="952" width="70" height="80" as="geometry" />
        </mxCell>
        <mxCell id="rqkGrwpuwZyJRBmfCaUI-77" value="&lt;font style=&quot;font-size: 9px;&quot;&gt;&lt;font style=&quot;&quot;&gt;mostrarMensaje:&amp;nbsp;&lt;/font&gt;&lt;/font&gt;&lt;div&gt;&lt;font style=&quot;font-size: 9px;&quot;&gt;&lt;span style=&quot;background-color: initial;&quot;&gt;&quot;Existen campos inválidos, por favor corrige la información&quot;&amp;nbsp;&lt;/span&gt;&lt;/font&gt;&lt;/div&gt;" style="text;html=1;align=center;verticalAlign=middle;resizable=0;points=[];autosize=1;strokeColor=none;fillColor=none;" parent="1" vertex="1">
          <mxGeometry x="1045" y="1032" width="260" height="40" as="geometry" />
        </mxCell>
        <mxCell id="rqkGrwpuwZyJRBmfCaUI-78" value="" style="endArrow=none;html=1;rounded=0;entryX=0.231;entryY=0.931;entryDx=0;entryDy=0;entryPerimeter=0;exitX=0.263;exitY=0.176;exitDx=0;exitDy=0;exitPerimeter=0;" parent="1" source="rqkGrwpuwZyJRBmfCaUI-76" target="rqkGrwpuwZyJRBmfCaUI-62" edge="1">
          <mxGeometry width="50" height="50" relative="1" as="geometry">
            <mxPoint x="1189" y="950" as="sourcePoint" />
            <mxPoint x="1290" y="920" as="targetPoint" />
            <Array as="points">
              <mxPoint x="1160" y="890" />
            </Array>
          </mxGeometry>
        </mxCell>
        <mxCell id="rqkGrwpuwZyJRBmfCaUI-79" value="&lt;font style=&quot;font-size: 8px;&quot;&gt;datos inválidos&lt;/font&gt;" style="text;html=1;align=center;verticalAlign=middle;resizable=0;points=[];autosize=1;strokeColor=none;fillColor=none;" parent="1" vertex="1">
          <mxGeometry x="1160" y="880" width="80" height="30" as="geometry" />
        </mxCell>
        <mxCell id="rqkGrwpuwZyJRBmfCaUI-80" value="" style="ellipse;shape=umlControl;whiteSpace=wrap;html=1;fillColor=#FF6666;" parent="1" vertex="1">
          <mxGeometry x="1380" y="952" width="70" height="80" as="geometry" />
        </mxCell>
        <mxCell id="rqkGrwpuwZyJRBmfCaUI-81" value="&lt;font style=&quot;font-size: 9px;&quot;&gt;&lt;font style=&quot;&quot;&gt;mostrarMensaje:&amp;nbsp;&lt;/font&gt;&lt;/font&gt;&lt;div&gt;&lt;font style=&quot;font-size: 9px;&quot;&gt;&lt;span style=&quot;background-color: initial;&quot;&gt;&quot;Existen campos incompletos, por favor corrige&quot;&amp;nbsp;&lt;/span&gt;&lt;/font&gt;&lt;span style=&quot;background-color: initial; font-size: 9px;&quot;&gt;&amp;nbsp;&lt;/span&gt;&lt;/div&gt;" style="text;html=1;align=center;verticalAlign=middle;resizable=0;points=[];autosize=1;strokeColor=none;fillColor=none;" parent="1" vertex="1">
          <mxGeometry x="1310" y="1040" width="220" height="40" as="geometry" />
        </mxCell>
        <mxCell id="rqkGrwpuwZyJRBmfCaUI-82" value="" style="endArrow=none;html=1;rounded=0;exitX=0.936;exitY=0.785;exitDx=0;exitDy=0;exitPerimeter=0;entryX=0.411;entryY=0.117;entryDx=0;entryDy=0;entryPerimeter=0;" parent="1" source="rqkGrwpuwZyJRBmfCaUI-62" target="rqkGrwpuwZyJRBmfCaUI-80" edge="1">
          <mxGeometry width="50" height="50" relative="1" as="geometry">
            <mxPoint x="1360" y="910" as="sourcePoint" />
            <mxPoint x="1420" y="880" as="targetPoint" />
            <Array as="points">
              <mxPoint x="1410" y="880" />
            </Array>
          </mxGeometry>
        </mxCell>
        <mxCell id="rqkGrwpuwZyJRBmfCaUI-84" value="&lt;font style=&quot;font-size: 8px;&quot;&gt;datos incompletos&lt;/font&gt;" style="text;html=1;align=center;verticalAlign=middle;resizable=0;points=[];autosize=1;strokeColor=none;fillColor=none;" parent="1" vertex="1">
          <mxGeometry x="1325" y="870" width="90" height="30" as="geometry" />
        </mxCell>
        <mxCell id="rqkGrwpuwZyJRBmfCaUI-85" value="" style="endArrow=none;html=1;rounded=0;entryX=0.046;entryY=0.75;entryDx=0;entryDy=0;entryPerimeter=0;exitX=0;exitY=0.489;exitDx=0;exitDy=0;exitPerimeter=0;" parent="1" source="rqkGrwpuwZyJRBmfCaUI-172" target="rqkGrwpuwZyJRBmfCaUI-55" edge="1">
          <mxGeometry width="50" height="50" relative="1" as="geometry">
            <mxPoint x="1040" y="1140" as="sourcePoint" />
            <mxPoint x="1040" y="890" as="targetPoint" />
            <Array as="points">
              <mxPoint x="1040" y="1169" />
              <mxPoint x="1040" y="880" />
            </Array>
          </mxGeometry>
        </mxCell>
        <mxCell id="rqkGrwpuwZyJRBmfCaUI-86" value="" style="endArrow=none;html=1;rounded=0;exitX=0.721;exitY=0.958;exitDx=0;exitDy=0;exitPerimeter=0;entryX=-0.007;entryY=0.504;entryDx=0;entryDy=0;entryPerimeter=0;" parent="1" source="rqkGrwpuwZyJRBmfCaUI-55" target="rqkGrwpuwZyJRBmfCaUI-171" edge="1">
          <mxGeometry width="50" height="50" relative="1" as="geometry">
            <mxPoint x="1270" y="970" as="sourcePoint" />
            <mxPoint x="1310" y="1150" as="targetPoint" />
            <Array as="points">
              <mxPoint x="1100" y="940" />
              <mxPoint x="1310" y="940" />
              <mxPoint x="1310" y="1010" />
              <mxPoint x="1310" y="1150" />
            </Array>
          </mxGeometry>
        </mxCell>
        <mxCell id="rqkGrwpuwZyJRBmfCaUI-88" value="" style="ellipse;shape=umlControl;whiteSpace=wrap;html=1;fillColor=#FF6666;" parent="1" vertex="1">
          <mxGeometry x="840" y="280" width="70" height="80" as="geometry" />
        </mxCell>
        <mxCell id="rqkGrwpuwZyJRBmfCaUI-89" value="&lt;font style=&quot;font-size: 9px;&quot;&gt;&lt;font style=&quot;&quot;&gt;mostrarMensaje:&amp;nbsp;&lt;/font&gt;&lt;/font&gt;&lt;div&gt;&lt;font style=&quot;font-size: 9px;&quot;&gt;&lt;span style=&quot;background-color: initial;&quot;&gt;&quot;No hay conexión con la base de datos&quot;&lt;/span&gt;&lt;/font&gt;&lt;/div&gt;" style="text;html=1;align=center;verticalAlign=middle;resizable=0;points=[];autosize=1;strokeColor=none;fillColor=none;" parent="1" vertex="1">
          <mxGeometry x="791" y="354" width="180" height="40" as="geometry" />
        </mxCell>
        <mxCell id="rqkGrwpuwZyJRBmfCaUI-90" value="" style="endArrow=none;html=1;rounded=0;exitX=0.424;exitY=0.106;exitDx=0;exitDy=0;exitPerimeter=0;entryX=0.053;entryY=0.372;entryDx=0;entryDy=0;entryPerimeter=0;" parent="1" source="rqkGrwpuwZyJRBmfCaUI-5" target="rqkGrwpuwZyJRBmfCaUI-88" edge="1">
          <mxGeometry width="50" height="50" relative="1" as="geometry">
            <mxPoint x="240" y="490" as="sourcePoint" />
            <mxPoint x="840" y="200" as="targetPoint" />
            <Array as="points">
              <mxPoint x="230" y="310" />
            </Array>
          </mxGeometry>
        </mxCell>
        <mxCell id="rqkGrwpuwZyJRBmfCaUI-91" value="" style="endArrow=none;html=1;rounded=0;exitX=0.697;exitY=0.158;exitDx=0;exitDy=0;exitPerimeter=0;entryX=0.079;entryY=0.788;entryDx=0;entryDy=0;entryPerimeter=0;" parent="1" source="rqkGrwpuwZyJRBmfCaUI-22" target="rqkGrwpuwZyJRBmfCaUI-88" edge="1">
          <mxGeometry width="50" height="50" relative="1" as="geometry">
            <mxPoint x="480" y="610" as="sourcePoint" />
            <mxPoint x="480" y="390" as="targetPoint" />
            <Array as="points">
              <mxPoint x="490" y="340" />
            </Array>
          </mxGeometry>
        </mxCell>
        <mxCell id="rqkGrwpuwZyJRBmfCaUI-92" value="" style="endArrow=none;html=1;rounded=0;exitX=0.285;exitY=0.175;exitDx=0;exitDy=0;exitPerimeter=0;entryX=0.952;entryY=0.374;entryDx=0;entryDy=0;entryPerimeter=0;" parent="1" source="rqkGrwpuwZyJRBmfCaUI-62" target="rqkGrwpuwZyJRBmfCaUI-88" edge="1">
          <mxGeometry width="50" height="50" relative="1" as="geometry">
            <mxPoint x="1250" y="820" as="sourcePoint" />
            <mxPoint x="1280" y="310" as="targetPoint" />
            <Array as="points">
              <mxPoint x="1290" y="310" />
            </Array>
          </mxGeometry>
        </mxCell>
        <mxCell id="rqkGrwpuwZyJRBmfCaUI-94" value="no hay conexión con la base de datos" style="text;html=1;align=center;verticalAlign=middle;resizable=0;points=[];autosize=1;strokeColor=none;fillColor=none;" parent="1" vertex="1">
          <mxGeometry x="237" y="280" width="220" height="30" as="geometry" />
        </mxCell>
        <mxCell id="rqkGrwpuwZyJRBmfCaUI-95" value="no hay conexión con la base de datos" style="text;html=1;align=center;verticalAlign=middle;resizable=0;points=[];autosize=1;strokeColor=none;fillColor=none;" parent="1" vertex="1">
          <mxGeometry x="500" y="320" width="220" height="30" as="geometry" />
        </mxCell>
        <mxCell id="rqkGrwpuwZyJRBmfCaUI-96" value="no hay conexión con la base de datos" style="text;html=1;align=center;verticalAlign=middle;resizable=0;points=[];autosize=1;strokeColor=none;fillColor=none;" parent="1" vertex="1">
          <mxGeometry x="1060" y="290" width="220" height="30" as="geometry" />
        </mxCell>
        <mxCell id="rqkGrwpuwZyJRBmfCaUI-99" value="" style="ellipse;shape=umlControl;whiteSpace=wrap;html=1;fillColor=#FF9999;" parent="1" vertex="1">
          <mxGeometry x="1110" y="517.5" width="56" height="62.5" as="geometry" />
        </mxCell>
        <mxCell id="rqkGrwpuwZyJRBmfCaUI-100" value="&lt;font style=&quot;font-size: 9px;&quot;&gt;&lt;font style=&quot;&quot;&gt;mostrarMensaje:&amp;nbsp;&lt;/font&gt;&lt;/font&gt;&lt;div&gt;&lt;font style=&quot;font-size: 9px;&quot;&gt;&lt;span style=&quot;background-color: initial;&quot;&gt;&quot;No se ha encontrado el archivo&quot;&lt;/span&gt;&lt;/font&gt;&lt;/div&gt;" style="text;html=1;align=center;verticalAlign=middle;resizable=0;points=[];autosize=1;strokeColor=none;fillColor=none;" parent="1" vertex="1">
          <mxGeometry x="1070" y="580" width="150" height="40" as="geometry" />
        </mxCell>
        <mxCell id="rqkGrwpuwZyJRBmfCaUI-101" value="" style="endArrow=none;html=1;rounded=0;entryX=0.017;entryY=0.68;entryDx=0;entryDy=0;entryPerimeter=0;exitX=0.864;exitY=0.243;exitDx=0;exitDy=0;exitPerimeter=0;" parent="1" source="rqkGrwpuwZyJRBmfCaUI-49" target="rqkGrwpuwZyJRBmfCaUI-99" edge="1">
          <mxGeometry width="50" height="50" relative="1" as="geometry">
            <mxPoint x="850" y="630" as="sourcePoint" />
            <mxPoint x="960" y="560" as="targetPoint" />
            <Array as="points">
              <mxPoint x="920" y="560" />
            </Array>
          </mxGeometry>
        </mxCell>
        <mxCell id="rqkGrwpuwZyJRBmfCaUI-102" value="&lt;font style=&quot;font-size: 8px;&quot;&gt;No se encuentra o&amp;nbsp;&lt;/font&gt;&lt;div&gt;&lt;font style=&quot;font-size: 8px;&quot;&gt;no existe el archivo&lt;/font&gt;&lt;/div&gt;" style="text;html=1;align=center;verticalAlign=middle;resizable=0;points=[];autosize=1;strokeColor=none;fillColor=none;" parent="1" vertex="1">
          <mxGeometry x="920" y="557.5" width="90" height="40" as="geometry" />
        </mxCell>
        <mxCell id="rqkGrwpuwZyJRBmfCaUI-104" value="Estudiante" style="shape=umlActor;verticalLabelPosition=bottom;verticalAlign=top;html=1;" parent="1" vertex="1">
          <mxGeometry x="60" y="1776" width="30" height="60" as="geometry" />
        </mxCell>
        <mxCell id="rqkGrwpuwZyJRBmfCaUI-106" value="" style="endArrow=none;html=1;rounded=0;exitX=0.409;exitY=0.129;exitDx=0;exitDy=0;exitPerimeter=0;entryX=0.55;entryY=0.997;entryDx=0;entryDy=0;entryPerimeter=0;" parent="1" source="rqkGrwpuwZyJRBmfCaUI-49" target="rqkGrwpuwZyJRBmfCaUI-89" edge="1">
          <mxGeometry width="50" height="50" relative="1" as="geometry">
            <mxPoint x="850" y="640" as="sourcePoint" />
            <mxPoint x="889" y="530" as="targetPoint" />
          </mxGeometry>
        </mxCell>
        <mxCell id="rqkGrwpuwZyJRBmfCaUI-107" value="&lt;font style=&quot;font-size: 8px;&quot;&gt;no hay conexión con la&amp;nbsp;&lt;/font&gt;&lt;div&gt;&lt;font style=&quot;font-size: 8px;&quot;&gt;base de datos&lt;/font&gt;&lt;/div&gt;" style="text;html=1;align=center;verticalAlign=middle;resizable=0;points=[];autosize=1;strokeColor=none;fillColor=none;" parent="1" vertex="1">
          <mxGeometry x="790" y="570" width="110" height="40" as="geometry" />
        </mxCell>
        <mxCell id="rqkGrwpuwZyJRBmfCaUI-108" value="recupera y muestra" style="ellipse;shape=umlControl;whiteSpace=wrap;html=1;fillColor=#99FFFF;" parent="1" vertex="1">
          <mxGeometry x="240" y="1639" width="70" height="80" as="geometry" />
        </mxCell>
        <mxCell id="rqkGrwpuwZyJRBmfCaUI-109" value="" style="group" parent="1" vertex="1" connectable="0">
          <mxGeometry x="210" y="1776" width="145" height="92" as="geometry" />
        </mxCell>
        <mxCell id="rqkGrwpuwZyJRBmfCaUI-110" value="" style="shape=umlBoundary;whiteSpace=wrap;html=1;fillColor=#99FFFF;" parent="rqkGrwpuwZyJRBmfCaUI-109" vertex="1">
          <mxGeometry x="25" width="80" height="70" as="geometry" />
        </mxCell>
        <mxCell id="rqkGrwpuwZyJRBmfCaUI-111" value="FXMLGenerarEvaluación" style="text;html=1;align=center;verticalAlign=middle;resizable=0;points=[];autosize=1;strokeColor=none;fillColor=none;" parent="rqkGrwpuwZyJRBmfCaUI-109" vertex="1">
          <mxGeometry x="-15" y="62" width="160" height="30" as="geometry" />
        </mxCell>
        <mxCell id="rqkGrwpuwZyJRBmfCaUI-112" value="" style="endArrow=none;html=1;rounded=0;entryX=0.504;entryY=1.015;entryDx=0;entryDy=0;entryPerimeter=0;" parent="1" target="rqkGrwpuwZyJRBmfCaUI-108" edge="1">
          <mxGeometry width="50" height="50" relative="1" as="geometry">
            <mxPoint x="275" y="1779" as="sourcePoint" />
            <mxPoint x="320" y="1719" as="targetPoint" />
          </mxGeometry>
        </mxCell>
        <mxCell id="rqkGrwpuwZyJRBmfCaUI-113" value="" style="endArrow=none;html=1;rounded=0;entryX=0.014;entryY=0.489;entryDx=0;entryDy=0;entryPerimeter=0;" parent="1" target="rqkGrwpuwZyJRBmfCaUI-110" edge="1">
          <mxGeometry width="50" height="50" relative="1" as="geometry">
            <mxPoint x="90" y="1810.3504497751123" as="sourcePoint" />
            <mxPoint x="235.08000000000004" y="1813.7399999999998" as="targetPoint" />
          </mxGeometry>
        </mxCell>
        <mxCell id="rqkGrwpuwZyJRBmfCaUI-114" value="&lt;font style=&quot;font-size: 6px;&quot;&gt;clic botón Evaluación OV a Estudiante&lt;/font&gt;" style="text;html=1;align=center;verticalAlign=middle;resizable=0;points=[];autosize=1;strokeColor=none;fillColor=none;" parent="1" vertex="1">
          <mxGeometry x="90" y="1788" width="130" height="30" as="geometry" />
        </mxCell>
        <mxCell id="rqkGrwpuwZyJRBmfCaUI-115" value="" style="endArrow=none;html=1;rounded=0;exitX=0.737;exitY=0.181;exitDx=0;exitDy=0;exitPerimeter=0;entryX=0.019;entryY=0.666;entryDx=0;entryDy=0;entryPerimeter=0;" parent="1" source="rqkGrwpuwZyJRBmfCaUI-108" target="rqkGrwpuwZyJRBmfCaUI-118" edge="1">
          <mxGeometry width="50" height="50" relative="1" as="geometry">
            <mxPoint x="297" y="1654" as="sourcePoint" />
            <mxPoint x="600" y="1550" as="targetPoint" />
            <Array as="points">
              <mxPoint x="355" y="1654" />
              <mxPoint x="355" y="1470" />
            </Array>
          </mxGeometry>
        </mxCell>
        <mxCell id="rqkGrwpuwZyJRBmfCaUI-117" value="" style="group" parent="1" vertex="1" connectable="0">
          <mxGeometry x="555" y="1430" width="100" height="93" as="geometry" />
        </mxCell>
        <mxCell id="rqkGrwpuwZyJRBmfCaUI-118" value="" style="ellipse;shape=umlEntity;whiteSpace=wrap;html=1;fillColor=#99FFFF;" parent="rqkGrwpuwZyJRBmfCaUI-117" vertex="1">
          <mxGeometry x="20" width="60" height="60" as="geometry" />
        </mxCell>
        <mxCell id="rqkGrwpuwZyJRBmfCaUI-119" value="ESTUDIANTE" style="text;html=1;align=center;verticalAlign=middle;resizable=0;points=[];autosize=1;strokeColor=none;fillColor=none;" parent="rqkGrwpuwZyJRBmfCaUI-117" vertex="1">
          <mxGeometry y="63" width="100" height="30" as="geometry" />
        </mxCell>
        <mxCell id="rqkGrwpuwZyJRBmfCaUI-120" value="" style="endArrow=none;html=1;rounded=0;exitX=0.958;exitY=0.379;exitDx=0;exitDy=0;exitPerimeter=0;entryX=0.008;entryY=0.616;entryDx=0;entryDy=0;entryPerimeter=0;" parent="1" source="rqkGrwpuwZyJRBmfCaUI-108" target="rqkGrwpuwZyJRBmfCaUI-122" edge="1">
          <mxGeometry width="50" height="50" relative="1" as="geometry">
            <mxPoint x="320" y="1694" as="sourcePoint" />
            <mxPoint x="580" y="1660" as="targetPoint" />
            <Array as="points">
              <mxPoint x="400" y="1670" />
              <mxPoint x="400" y="1560" />
            </Array>
          </mxGeometry>
        </mxCell>
        <mxCell id="rqkGrwpuwZyJRBmfCaUI-121" value="" style="group" parent="1" vertex="1" connectable="0">
          <mxGeometry x="555" y="1518.75" width="100" height="93" as="geometry" />
        </mxCell>
        <mxCell id="rqkGrwpuwZyJRBmfCaUI-122" value="" style="ellipse;shape=umlEntity;whiteSpace=wrap;html=1;fillColor=#99FFFF;" parent="rqkGrwpuwZyJRBmfCaUI-121" vertex="1">
          <mxGeometry x="20" width="60" height="60" as="geometry" />
        </mxCell>
        <mxCell id="rqkGrwpuwZyJRBmfCaUI-123" value="PROYECTO" style="text;html=1;align=center;verticalAlign=middle;resizable=0;points=[];autosize=1;strokeColor=none;fillColor=none;" parent="rqkGrwpuwZyJRBmfCaUI-121" vertex="1">
          <mxGeometry x="5" y="63" width="90" height="30" as="geometry" />
        </mxCell>
        <mxCell id="rqkGrwpuwZyJRBmfCaUI-126" value="" style="group" parent="1" vertex="1" connectable="0">
          <mxGeometry x="560" y="1608.75" width="145" height="93" as="geometry" />
        </mxCell>
        <mxCell id="rqkGrwpuwZyJRBmfCaUI-127" value="" style="ellipse;shape=umlEntity;whiteSpace=wrap;html=1;fillColor=#99FFFF;" parent="rqkGrwpuwZyJRBmfCaUI-126" vertex="1">
          <mxGeometry x="20" width="60" height="60" as="geometry" />
        </mxCell>
        <mxCell id="rqkGrwpuwZyJRBmfCaUI-128" value="ORGANIZACION VINCULADA" style="text;html=1;align=center;verticalAlign=middle;resizable=0;points=[];autosize=1;strokeColor=none;fillColor=none;" parent="rqkGrwpuwZyJRBmfCaUI-126" vertex="1">
          <mxGeometry x="-45" y="63" width="190" height="30" as="geometry" />
        </mxCell>
        <mxCell id="rqkGrwpuwZyJRBmfCaUI-144" value="guardar archivo" style="ellipse;shape=umlControl;whiteSpace=wrap;html=1;fillColor=#99FFFF;" parent="1" vertex="1">
          <mxGeometry x="1020" y="1710" width="70" height="80" as="geometry" />
        </mxCell>
        <mxCell id="rqkGrwpuwZyJRBmfCaUI-146" value="" style="ellipse;shape=umlControl;whiteSpace=wrap;html=1;fillColor=#99FFFF;" parent="1" vertex="1">
          <mxGeometry x="1310" y="1705.5" width="70" height="80" as="geometry" />
        </mxCell>
        <mxCell id="rqkGrwpuwZyJRBmfCaUI-147" value="&lt;font style=&quot;font-size: 9px;&quot;&gt;&lt;font style=&quot;&quot;&gt;mostrarMensaje:&amp;nbsp;&lt;/font&gt;&lt;/font&gt;&lt;div&gt;&lt;font style=&quot;font-size: 9px;&quot;&gt;&lt;span style=&quot;background-color: initial;&quot;&gt;&quot;Formato generado correctamente&quot;&amp;nbsp;&lt;/span&gt;&lt;/font&gt;&lt;span style=&quot;background-color: initial; font-size: 9px;&quot;&gt;&amp;nbsp;&lt;/span&gt;&lt;/div&gt;" style="text;html=1;align=center;verticalAlign=middle;resizable=0;points=[];autosize=1;strokeColor=none;fillColor=none;" parent="1" vertex="1">
          <mxGeometry x="1260" y="1785.5" width="170" height="40" as="geometry" />
        </mxCell>
        <mxCell id="rqkGrwpuwZyJRBmfCaUI-148" value="" style="endArrow=none;html=1;rounded=0;exitX=1.004;exitY=0.552;exitDx=0;exitDy=0;exitPerimeter=0;entryX=-0.002;entryY=0.609;entryDx=0;entryDy=0;entryPerimeter=0;" parent="1" source="rqkGrwpuwZyJRBmfCaUI-144" target="rqkGrwpuwZyJRBmfCaUI-146" edge="1">
          <mxGeometry width="50" height="50" relative="1" as="geometry">
            <mxPoint x="1530" y="1730" as="sourcePoint" />
            <mxPoint x="1580" y="1680" as="targetPoint" />
          </mxGeometry>
        </mxCell>
        <mxCell id="rqkGrwpuwZyJRBmfCaUI-149" value="" style="ellipse;shape=umlControl;whiteSpace=wrap;html=1;fillColor=#FF6666;" parent="1" vertex="1">
          <mxGeometry x="830" y="1300" width="70" height="80" as="geometry" />
        </mxCell>
        <mxCell id="rqkGrwpuwZyJRBmfCaUI-150" value="&lt;font style=&quot;font-size: 9px;&quot;&gt;&lt;font style=&quot;&quot;&gt;mostrarMensaje:&amp;nbsp;&lt;/font&gt;&lt;/font&gt;&lt;div&gt;&lt;font style=&quot;font-size: 9px;&quot;&gt;&lt;span style=&quot;background-color: initial;&quot;&gt;&quot;No hay conexión con la base de datos&quot;&lt;/span&gt;&lt;/font&gt;&lt;/div&gt;" style="text;html=1;align=center;verticalAlign=middle;resizable=0;points=[];autosize=1;strokeColor=none;fillColor=none;" parent="1" vertex="1">
          <mxGeometry x="770" y="1380" width="180" height="40" as="geometry" />
        </mxCell>
        <mxCell id="rqkGrwpuwZyJRBmfCaUI-151" value="" style="endArrow=none;html=1;rounded=0;exitX=0.287;exitY=0.166;exitDx=0;exitDy=0;exitPerimeter=0;entryX=0.059;entryY=0.367;entryDx=0;entryDy=0;entryPerimeter=0;" parent="1" source="rqkGrwpuwZyJRBmfCaUI-108" target="rqkGrwpuwZyJRBmfCaUI-149" edge="1">
          <mxGeometry width="50" height="50" relative="1" as="geometry">
            <mxPoint x="270" y="1610" as="sourcePoint" />
            <mxPoint x="830" y="1360" as="targetPoint" />
            <Array as="points">
              <mxPoint x="260" y="1330" />
            </Array>
          </mxGeometry>
        </mxCell>
        <mxCell id="rqkGrwpuwZyJRBmfCaUI-152" value="no hay conexión con la base de datos" style="text;html=1;align=center;verticalAlign=middle;resizable=0;points=[];autosize=1;strokeColor=none;fillColor=none;" parent="1" vertex="1">
          <mxGeometry x="297" y="1305" width="220" height="30" as="geometry" />
        </mxCell>
        <mxCell id="rqkGrwpuwZyJRBmfCaUI-155" value="" style="ellipse;shape=umlControl;whiteSpace=wrap;html=1;fillColor=#FF9999;" parent="1" vertex="1">
          <mxGeometry x="1440" y="1576.5" width="56" height="62.5" as="geometry" />
        </mxCell>
        <mxCell id="rqkGrwpuwZyJRBmfCaUI-156" value="&lt;font style=&quot;font-size: 9px;&quot;&gt;&lt;font style=&quot;&quot;&gt;mostrarMensaje:&amp;nbsp;&lt;/font&gt;&lt;/font&gt;&lt;div&gt;&lt;font style=&quot;font-size: 9px;&quot;&gt;&lt;span style=&quot;background-color: initial;&quot;&gt;&quot;No se ha podido guardar el archivo,&amp;nbsp;&lt;/span&gt;&lt;/font&gt;&lt;/div&gt;&lt;div&gt;&lt;font style=&quot;font-size: 9px;&quot;&gt;&lt;span style=&quot;background-color: initial;&quot;&gt;verifica la ruta de guardado&quot;&lt;/span&gt;&lt;/font&gt;&lt;/div&gt;" style="text;html=1;align=center;verticalAlign=middle;resizable=0;points=[];autosize=1;strokeColor=none;fillColor=none;" parent="1" vertex="1">
          <mxGeometry x="1383" y="1630" width="170" height="60" as="geometry" />
        </mxCell>
        <mxCell id="rqkGrwpuwZyJRBmfCaUI-158" value="&lt;span style=&quot;font-size: 8px;&quot;&gt;Ruta de archivo no accesible&lt;/span&gt;" style="text;html=1;align=center;verticalAlign=middle;resizable=0;points=[];autosize=1;strokeColor=none;fillColor=none;" parent="1" vertex="1">
          <mxGeometry x="1280" y="1576.5" width="130" height="30" as="geometry" />
        </mxCell>
        <mxCell id="rqkGrwpuwZyJRBmfCaUI-159" value="" style="ellipse;shape=umlControl;whiteSpace=wrap;html=1;fillColor=#FF6666;" parent="1" vertex="1">
          <mxGeometry x="575" y="1836" width="70" height="80" as="geometry" />
        </mxCell>
        <mxCell id="rqkGrwpuwZyJRBmfCaUI-160" value="" style="endArrow=none;html=1;rounded=0;entryX=0.856;entryY=0.876;entryDx=0;entryDy=0;entryPerimeter=0;exitX=0.355;exitY=0.146;exitDx=0;exitDy=0;exitPerimeter=0;" parent="1" source="rqkGrwpuwZyJRBmfCaUI-159" target="rqkGrwpuwZyJRBmfCaUI-108" edge="1">
          <mxGeometry width="50" height="50" relative="1" as="geometry">
            <mxPoint x="600" y="1840" as="sourcePoint" />
            <mxPoint x="494.60999999999996" y="1788.0000000000002" as="targetPoint" />
            <Array as="points">
              <mxPoint x="600" y="1790" />
              <mxPoint x="600" y="1709" />
            </Array>
          </mxGeometry>
        </mxCell>
        <mxCell id="rqkGrwpuwZyJRBmfCaUI-161" value="clic Cancelar" style="text;html=1;align=center;verticalAlign=middle;resizable=0;points=[];autosize=1;strokeColor=none;fillColor=none;" parent="1" vertex="1">
          <mxGeometry x="517" y="1753.5" width="90" height="30" as="geometry" />
        </mxCell>
        <mxCell id="rqkGrwpuwZyJRBmfCaUI-162" value="&lt;font style=&quot;font-size: 9px;&quot;&gt;&lt;font style=&quot;&quot;&gt;mostrarMensaje:&amp;nbsp;&lt;/font&gt;&lt;/font&gt;&lt;div&gt;&lt;font style=&quot;font-size: 9px;&quot;&gt;&lt;span style=&quot;background-color: initial;&quot;&gt;&quot;¿Está seguro que deseas cancelar?&quot;&lt;/span&gt;&lt;/font&gt;&lt;/div&gt;" style="text;html=1;align=center;verticalAlign=middle;resizable=0;points=[];autosize=1;strokeColor=none;fillColor=none;" parent="1" vertex="1">
          <mxGeometry x="525" y="1920" width="170" height="40" as="geometry" />
        </mxCell>
        <mxCell id="rqkGrwpuwZyJRBmfCaUI-163" value="" style="endArrow=none;html=1;rounded=0;exitX=0.533;exitY=1;exitDx=0;exitDy=0;exitPerimeter=0;entryX=-0.004;entryY=0.552;entryDx=0;entryDy=0;entryPerimeter=0;" parent="1" source="rqkGrwpuwZyJRBmfCaUI-111" target="rqkGrwpuwZyJRBmfCaUI-159" edge="1">
          <mxGeometry width="50" height="50" relative="1" as="geometry">
            <mxPoint x="213" y="1836" as="sourcePoint" />
            <mxPoint x="640" y="2000" as="targetPoint" />
            <Array as="points">
              <mxPoint x="280" y="1880" />
            </Array>
          </mxGeometry>
        </mxCell>
        <mxCell id="rqkGrwpuwZyJRBmfCaUI-164" value="clic Cancelar" style="text;html=1;align=center;verticalAlign=middle;resizable=0;points=[];autosize=1;strokeColor=none;fillColor=none;" parent="1" vertex="1">
          <mxGeometry x="380" y="1861" width="90" height="30" as="geometry" />
        </mxCell>
        <mxCell id="rqkGrwpuwZyJRBmfCaUI-166" value="" style="endArrow=none;html=1;rounded=0;entryX=0;entryY=0.5;entryDx=0;entryDy=0;exitX=0.988;exitY=0.517;exitDx=0;exitDy=0;exitPerimeter=0;" parent="1" source="rqkGrwpuwZyJRBmfCaUI-108" target="rqkGrwpuwZyJRBmfCaUI-127" edge="1">
          <mxGeometry width="50" height="50" relative="1" as="geometry">
            <mxPoint x="480" y="1690" as="sourcePoint" />
            <mxPoint x="540" y="1630" as="targetPoint" />
            <Array as="points">
              <mxPoint x="520" y="1680" />
              <mxPoint x="520" y="1640" />
            </Array>
          </mxGeometry>
        </mxCell>
        <mxCell id="rqkGrwpuwZyJRBmfCaUI-167" value="" style="endArrow=none;html=1;rounded=0;entryX=0.001;entryY=0.601;entryDx=0;entryDy=0;entryPerimeter=0;exitX=0.964;exitY=0.757;exitDx=0;exitDy=0;exitPerimeter=0;" parent="1" source="rqkGrwpuwZyJRBmfCaUI-108" target="rqkGrwpuwZyJRBmfCaUI-144" edge="1">
          <mxGeometry width="50" height="50" relative="1" as="geometry">
            <mxPoint x="400" y="1750" as="sourcePoint" />
            <mxPoint x="994.2639999999999" y="1758.216" as="targetPoint" />
            <Array as="points">
              <mxPoint x="670" y="1700" />
              <mxPoint x="670" y="1760" />
            </Array>
          </mxGeometry>
        </mxCell>
        <mxCell id="rqkGrwpuwZyJRBmfCaUI-168" value="clic Generar" style="text;html=1;align=center;verticalAlign=middle;resizable=0;points=[];autosize=1;strokeColor=none;fillColor=none;" parent="1" vertex="1">
          <mxGeometry x="705" y="1735" width="90" height="30" as="geometry" />
        </mxCell>
        <mxCell id="rqkGrwpuwZyJRBmfCaUI-170" value="" style="endArrow=none;html=1;rounded=0;entryX=0.039;entryY=0.378;entryDx=0;entryDy=0;entryPerimeter=0;exitX=0.714;exitY=0.173;exitDx=0;exitDy=0;exitPerimeter=0;" parent="1" source="rqkGrwpuwZyJRBmfCaUI-146" target="rqkGrwpuwZyJRBmfCaUI-155" edge="1">
          <mxGeometry width="50" height="50" relative="1" as="geometry">
            <mxPoint x="1360" y="1720" as="sourcePoint" />
            <mxPoint x="1370" y="1610" as="targetPoint" />
            <Array as="points">
              <mxPoint x="1360" y="1600" />
            </Array>
          </mxGeometry>
        </mxCell>
        <mxCell id="rqkGrwpuwZyJRBmfCaUI-171" value="&lt;font style=&quot;font-size: 10px;&quot;&gt;remarcar datos incompletos&lt;/font&gt;" style="ellipse;shape=umlControl;whiteSpace=wrap;html=1;fillColor=#FF6666;" parent="1" vertex="1">
          <mxGeometry x="1380" y="1110" width="70" height="80" as="geometry" />
        </mxCell>
        <mxCell id="rqkGrwpuwZyJRBmfCaUI-172" value="&lt;font style=&quot;font-size: 10px;&quot;&gt;remarcar datos invalidos&lt;/font&gt;" style="ellipse;shape=umlControl;whiteSpace=wrap;html=1;fillColor=#FF6666;" parent="1" vertex="1">
          <mxGeometry x="1140" y="1130" width="70" height="80" as="geometry" />
        </mxCell>
        <mxCell id="rqkGrwpuwZyJRBmfCaUI-174" value="" style="endArrow=none;html=1;rounded=0;entryX=0.441;entryY=0.938;entryDx=0;entryDy=0;entryPerimeter=0;exitX=0.284;exitY=0.173;exitDx=0;exitDy=0;exitPerimeter=0;" parent="1" source="rqkGrwpuwZyJRBmfCaUI-172" target="rqkGrwpuwZyJRBmfCaUI-77" edge="1">
          <mxGeometry width="50" height="50" relative="1" as="geometry">
            <mxPoint x="1220" y="1140" as="sourcePoint" />
            <mxPoint x="1270" y="1090" as="targetPoint" />
          </mxGeometry>
        </mxCell>
        <mxCell id="AWFBgo-DE84U1MAFSuaV-1" value="Evaluador" style="shape=umlActor;verticalLabelPosition=bottom;verticalAlign=top;html=1;outlineConnect=0;" parent="1" vertex="1">
          <mxGeometry x="60" y="2470" width="30" height="60" as="geometry" />
        </mxCell>
        <mxCell id="AWFBgo-DE84U1MAFSuaV-3" value="" style="group" parent="1" vertex="1" connectable="0">
          <mxGeometry x="160" y="2460" width="145" height="92" as="geometry" />
        </mxCell>
        <mxCell id="AWFBgo-DE84U1MAFSuaV-4" value="" style="shape=umlBoundary;whiteSpace=wrap;html=1;fillColor=#99FFFF;" parent="AWFBgo-DE84U1MAFSuaV-3" vertex="1">
          <mxGeometry x="25" width="80" height="70" as="geometry" />
        </mxCell>
        <mxCell id="AWFBgo-DE84U1MAFSuaV-5" value="FXMLElegirEstudiante" style="text;html=1;align=center;verticalAlign=middle;resizable=0;points=[];autosize=1;strokeColor=none;fillColor=none;" parent="AWFBgo-DE84U1MAFSuaV-3" vertex="1">
          <mxGeometry x="-5" y="62" width="140" height="30" as="geometry" />
        </mxCell>
        <mxCell id="AWFBgo-DE84U1MAFSuaV-52" value="&lt;font style=&quot;font-size: 8px;&quot;&gt;clic Evaluar Estudiante&lt;/font&gt;" style="text;html=1;align=center;verticalAlign=middle;resizable=0;points=[];autosize=1;strokeColor=none;fillColor=none;" parent="AWFBgo-DE84U1MAFSuaV-3" vertex="1">
          <mxGeometry x="-75" y="10" width="100" height="30" as="geometry" />
        </mxCell>
        <mxCell id="AWFBgo-DE84U1MAFSuaV-6" value="" style="endArrow=none;html=1;rounded=0;entryX=0.019;entryY=0.666;entryDx=0;entryDy=0;entryPerimeter=0;exitX=0.999;exitY=0.521;exitDx=0;exitDy=0;exitPerimeter=0;" parent="1" source="AWFBgo-DE84U1MAFSuaV-10" target="AWFBgo-DE84U1MAFSuaV-8" edge="1">
          <mxGeometry width="50" height="50" relative="1" as="geometry">
            <mxPoint x="270" y="2380" as="sourcePoint" />
            <mxPoint x="578" y="2380" as="targetPoint" />
            <Array as="points">
              <mxPoint x="330" y="2380" />
              <mxPoint x="330" y="2300" />
            </Array>
          </mxGeometry>
        </mxCell>
        <mxCell id="AWFBgo-DE84U1MAFSuaV-7" value="" style="group" parent="1" vertex="1" connectable="0">
          <mxGeometry x="533" y="2260" width="100" height="93" as="geometry" />
        </mxCell>
        <mxCell id="AWFBgo-DE84U1MAFSuaV-8" value="" style="ellipse;shape=umlEntity;whiteSpace=wrap;html=1;fillColor=#99FFFF;" parent="AWFBgo-DE84U1MAFSuaV-7" vertex="1">
          <mxGeometry x="20" width="60" height="60" as="geometry" />
        </mxCell>
        <mxCell id="AWFBgo-DE84U1MAFSuaV-9" value="ESTUDIANTE" style="text;html=1;align=center;verticalAlign=middle;resizable=0;points=[];autosize=1;strokeColor=none;fillColor=none;" parent="AWFBgo-DE84U1MAFSuaV-7" vertex="1">
          <mxGeometry y="63" width="100" height="30" as="geometry" />
        </mxCell>
        <mxCell id="AWFBgo-DE84U1MAFSuaV-10" value="recupera y muestra" style="ellipse;shape=umlControl;whiteSpace=wrap;html=1;fillColor=#99FFFF;" parent="1" vertex="1">
          <mxGeometry x="197.5" y="2338" width="70" height="80" as="geometry" />
        </mxCell>
        <mxCell id="AWFBgo-DE84U1MAFSuaV-11" value="" style="endArrow=none;html=1;rounded=0;entryX=0.457;entryY=1.002;entryDx=0;entryDy=0;entryPerimeter=0;exitX=0.563;exitY=0.003;exitDx=0;exitDy=0;exitPerimeter=0;" parent="1" source="AWFBgo-DE84U1MAFSuaV-4" target="AWFBgo-DE84U1MAFSuaV-10" edge="1">
          <mxGeometry width="50" height="50" relative="1" as="geometry">
            <mxPoint x="270" y="2480" as="sourcePoint" />
            <mxPoint x="320" y="2430" as="targetPoint" />
          </mxGeometry>
        </mxCell>
        <mxCell id="AWFBgo-DE84U1MAFSuaV-12" value="muestra con rúbrica" style="ellipse;shape=umlControl;whiteSpace=wrap;html=1;fillColor=#99FFFF;" parent="1" vertex="1">
          <mxGeometry x="510" y="2460" width="70" height="80" as="geometry" />
        </mxCell>
        <mxCell id="AWFBgo-DE84U1MAFSuaV-13" value="" style="endArrow=none;html=1;rounded=0;exitX=1;exitY=0.424;exitDx=0;exitDy=0;exitPerimeter=0;entryX=0.043;entryY=0.371;entryDx=0;entryDy=0;entryPerimeter=0;" parent="1" source="AWFBgo-DE84U1MAFSuaV-4" target="AWFBgo-DE84U1MAFSuaV-12" edge="1">
          <mxGeometry width="50" height="50" relative="1" as="geometry">
            <mxPoint x="400" y="2530" as="sourcePoint" />
            <mxPoint x="450" y="2480" as="targetPoint" />
          </mxGeometry>
        </mxCell>
        <mxCell id="AWFBgo-DE84U1MAFSuaV-14" value="selecciona ESTUDIANTE y clic en Aceptar" style="text;html=1;align=center;verticalAlign=middle;resizable=0;points=[];autosize=1;strokeColor=none;fillColor=none;" parent="1" vertex="1">
          <mxGeometry x="260" y="2460" width="250" height="30" as="geometry" />
        </mxCell>
        <mxCell id="AWFBgo-DE84U1MAFSuaV-15" value="" style="endArrow=none;html=1;rounded=0;entryX=0.431;entryY=0.996;entryDx=0;entryDy=0;entryPerimeter=0;exitX=0.336;exitY=0.159;exitDx=0;exitDy=0;exitPerimeter=0;" parent="1" source="AWFBgo-DE84U1MAFSuaV-45" target="AWFBgo-DE84U1MAFSuaV-12" edge="1">
          <mxGeometry width="50" height="50" relative="1" as="geometry">
            <mxPoint x="540" y="2600" as="sourcePoint" />
            <mxPoint x="550" y="2560" as="targetPoint" />
          </mxGeometry>
        </mxCell>
        <mxCell id="AWFBgo-DE84U1MAFSuaV-16" value="" style="endArrow=none;html=1;rounded=0;exitX=0.281;exitY=0.159;exitDx=0;exitDy=0;exitPerimeter=0;entryX=0.567;entryY=0.982;entryDx=0;entryDy=0;entryPerimeter=0;" parent="1" source="AWFBgo-DE84U1MAFSuaV-12" target="AWFBgo-DE84U1MAFSuaV-9" edge="1">
          <mxGeometry width="50" height="50" relative="1" as="geometry">
            <mxPoint x="510" y="2430" as="sourcePoint" />
            <mxPoint x="560" y="2380" as="targetPoint" />
            <Array as="points">
              <mxPoint x="530" y="2420" />
              <mxPoint x="590" y="2420" />
            </Array>
          </mxGeometry>
        </mxCell>
        <mxCell id="AWFBgo-DE84U1MAFSuaV-17" value="" style="group" parent="1" vertex="1" connectable="0">
          <mxGeometry x="700" y="2460" width="145" height="92" as="geometry" />
        </mxCell>
        <mxCell id="AWFBgo-DE84U1MAFSuaV-18" value="" style="shape=umlBoundary;whiteSpace=wrap;html=1;fillColor=#99FFFF;" parent="AWFBgo-DE84U1MAFSuaV-17" vertex="1">
          <mxGeometry x="25" width="80" height="70" as="geometry" />
        </mxCell>
        <mxCell id="AWFBgo-DE84U1MAFSuaV-19" value="FXMLEvaluarEstudiante" style="text;html=1;align=center;verticalAlign=middle;resizable=0;points=[];autosize=1;strokeColor=none;fillColor=none;" parent="AWFBgo-DE84U1MAFSuaV-17" vertex="1">
          <mxGeometry x="-10" y="62" width="150" height="30" as="geometry" />
        </mxCell>
        <mxCell id="AWFBgo-DE84U1MAFSuaV-20" value="" style="endArrow=none;html=1;rounded=0;exitX=0.998;exitY=0.503;exitDx=0;exitDy=0;exitPerimeter=0;entryX=-0.004;entryY=0.571;entryDx=0;entryDy=0;entryPerimeter=0;" parent="1" source="AWFBgo-DE84U1MAFSuaV-12" target="AWFBgo-DE84U1MAFSuaV-18" edge="1">
          <mxGeometry width="50" height="50" relative="1" as="geometry">
            <mxPoint x="610" y="2510" as="sourcePoint" />
            <mxPoint x="700" y="2500" as="targetPoint" />
          </mxGeometry>
        </mxCell>
        <mxCell id="AWFBgo-DE84U1MAFSuaV-21" value="valida, calcula y guarda" style="ellipse;shape=umlControl;whiteSpace=wrap;html=1;fillColor=#99FFFF;" parent="1" vertex="1">
          <mxGeometry x="920" y="2460" width="70" height="80" as="geometry" />
        </mxCell>
        <mxCell id="AWFBgo-DE84U1MAFSuaV-24" value="" style="endArrow=none;html=1;rounded=0;exitX=1.004;exitY=0.569;exitDx=0;exitDy=0;exitPerimeter=0;entryX=0.014;entryY=0.495;entryDx=0;entryDy=0;entryPerimeter=0;" parent="1" source="AWFBgo-DE84U1MAFSuaV-18" target="AWFBgo-DE84U1MAFSuaV-21" edge="1">
          <mxGeometry width="50" height="50" relative="1" as="geometry">
            <mxPoint x="870" y="2480" as="sourcePoint" />
            <mxPoint x="920" y="2430" as="targetPoint" />
          </mxGeometry>
        </mxCell>
        <mxCell id="AWFBgo-DE84U1MAFSuaV-25" value="" style="group" parent="1" vertex="1" connectable="0">
          <mxGeometry x="790" y="2329" width="110" height="98" as="geometry" />
        </mxCell>
        <mxCell id="AWFBgo-DE84U1MAFSuaV-26" value="" style="ellipse;shape=umlEntity;whiteSpace=wrap;html=1;fillColor=#99FFFF;" parent="AWFBgo-DE84U1MAFSuaV-25" vertex="1">
          <mxGeometry x="20" width="60" height="60" as="geometry" />
        </mxCell>
        <mxCell id="AWFBgo-DE84U1MAFSuaV-27" value="EVALUACIÓN&amp;nbsp;&lt;div&gt;PRESENTACIÓN&lt;/div&gt;" style="text;html=1;align=center;verticalAlign=middle;resizable=0;points=[];autosize=1;strokeColor=none;fillColor=none;" parent="AWFBgo-DE84U1MAFSuaV-25" vertex="1">
          <mxGeometry x="-10" y="58" width="120" height="40" as="geometry" />
        </mxCell>
        <mxCell id="AWFBgo-DE84U1MAFSuaV-28" value="" style="endArrow=none;html=1;rounded=0;exitX=0.282;exitY=0.166;exitDx=0;exitDy=0;exitPerimeter=0;entryX=0.583;entryY=0.98;entryDx=0;entryDy=0;entryPerimeter=0;" parent="1" source="AWFBgo-DE84U1MAFSuaV-21" target="AWFBgo-DE84U1MAFSuaV-27" edge="1">
          <mxGeometry width="50" height="50" relative="1" as="geometry">
            <mxPoint x="920" y="2440" as="sourcePoint" />
            <mxPoint x="970" y="2390" as="targetPoint" />
            <Array as="points">
              <mxPoint x="940" y="2420" />
              <mxPoint x="900" y="2420" />
              <mxPoint x="900" y="2450" />
              <mxPoint x="850" y="2450" />
            </Array>
          </mxGeometry>
        </mxCell>
        <mxCell id="AWFBgo-DE84U1MAFSuaV-29" value="" style="ellipse;shape=umlControl;whiteSpace=wrap;html=1;fillColor=#99FFFF;" parent="1" vertex="1">
          <mxGeometry x="1190" y="2460" width="70" height="80" as="geometry" />
        </mxCell>
        <mxCell id="AWFBgo-DE84U1MAFSuaV-30" value="&lt;font style=&quot;font-size: 9px;&quot;&gt;&lt;font style=&quot;&quot;&gt;mostrarMensaje:&amp;nbsp;&lt;/font&gt;&lt;/font&gt;&lt;div&gt;&lt;font style=&quot;font-size: 9px;&quot;&gt;&lt;span style=&quot;background-color: initial;&quot;&gt;&quot;Evaluación completada&quot;&lt;/span&gt;&lt;/font&gt;&lt;/div&gt;" style="text;html=1;align=center;verticalAlign=middle;resizable=0;points=[];autosize=1;strokeColor=none;fillColor=none;" parent="1" vertex="1">
          <mxGeometry x="1170" y="2540" width="120" height="40" as="geometry" />
        </mxCell>
        <mxCell id="AWFBgo-DE84U1MAFSuaV-31" value="" style="endArrow=none;html=1;rounded=0;exitX=0.999;exitY=0.5;exitDx=0;exitDy=0;exitPerimeter=0;entryX=0.004;entryY=0.497;entryDx=0;entryDy=0;entryPerimeter=0;" parent="1" source="AWFBgo-DE84U1MAFSuaV-21" target="AWFBgo-DE84U1MAFSuaV-29" edge="1">
          <mxGeometry width="50" height="50" relative="1" as="geometry">
            <mxPoint x="1000" y="2510" as="sourcePoint" />
            <mxPoint x="1050" y="2460" as="targetPoint" />
          </mxGeometry>
        </mxCell>
        <mxCell id="AWFBgo-DE84U1MAFSuaV-32" value="&lt;font style=&quot;font-size: 8px;&quot;&gt;muestra mensaje y remarca campos&lt;/font&gt;" style="ellipse;shape=umlControl;whiteSpace=wrap;html=1;fillColor=#FF6666;" parent="1" vertex="1">
          <mxGeometry x="815" y="2624" width="70" height="80" as="geometry" />
        </mxCell>
        <mxCell id="AWFBgo-DE84U1MAFSuaV-34" value="" style="endArrow=none;html=1;rounded=0;entryX=0.425;entryY=0.99;entryDx=0;entryDy=0;entryPerimeter=0;exitX=0.351;exitY=0.144;exitDx=0;exitDy=0;exitPerimeter=0;" parent="1" source="AWFBgo-DE84U1MAFSuaV-32" target="AWFBgo-DE84U1MAFSuaV-21" edge="1">
          <mxGeometry width="50" height="50" relative="1" as="geometry">
            <mxPoint x="864" y="2622" as="sourcePoint" />
            <mxPoint x="951" y="2563" as="targetPoint" />
            <Array as="points">
              <mxPoint x="840" y="2560" />
              <mxPoint x="950" y="2560" />
            </Array>
          </mxGeometry>
        </mxCell>
        <mxCell id="AWFBgo-DE84U1MAFSuaV-35" value="&lt;font style=&quot;font-size: 8px;&quot;&gt;datos inválidos o incompletos&lt;/font&gt;" style="text;html=1;align=center;verticalAlign=middle;resizable=0;points=[];autosize=1;strokeColor=none;fillColor=none;" parent="1" vertex="1">
          <mxGeometry x="830" y="2552" width="130" height="30" as="geometry" />
        </mxCell>
        <mxCell id="AWFBgo-DE84U1MAFSuaV-38" value="" style="endArrow=none;html=1;rounded=0;entryX=0.001;entryY=0.559;entryDx=0;entryDy=0;entryPerimeter=0;exitX=0.466;exitY=0.964;exitDx=0;exitDy=0;exitPerimeter=0;" parent="1" source="AWFBgo-DE84U1MAFSuaV-19" target="AWFBgo-DE84U1MAFSuaV-32" edge="1">
          <mxGeometry width="50" height="50" relative="1" as="geometry">
            <mxPoint x="710" y="2700" as="sourcePoint" />
            <mxPoint x="760" y="2650" as="targetPoint" />
            <Array as="points">
              <mxPoint x="760" y="2670" />
            </Array>
          </mxGeometry>
        </mxCell>
        <mxCell id="AWFBgo-DE84U1MAFSuaV-40" value="" style="ellipse;shape=umlControl;whiteSpace=wrap;html=1;fillColor=#FF6666;" parent="1" vertex="1">
          <mxGeometry x="820" y="2100" width="70" height="80" as="geometry" />
        </mxCell>
        <mxCell id="AWFBgo-DE84U1MAFSuaV-41" value="" style="endArrow=none;html=1;rounded=0;entryX=0.053;entryY=0.372;entryDx=0;entryDy=0;entryPerimeter=0;" parent="1" target="AWFBgo-DE84U1MAFSuaV-40" edge="1">
          <mxGeometry width="50" height="50" relative="1" as="geometry">
            <mxPoint x="220" y="2350" as="sourcePoint" />
            <mxPoint x="820" y="2020" as="targetPoint" />
            <Array as="points">
              <mxPoint x="220" y="2130" />
            </Array>
          </mxGeometry>
        </mxCell>
        <mxCell id="AWFBgo-DE84U1MAFSuaV-42" value="no hay conexión con la base de datos" style="text;html=1;align=center;verticalAlign=middle;resizable=0;points=[];autosize=1;strokeColor=none;fillColor=none;" parent="1" vertex="1">
          <mxGeometry x="217" y="2100" width="220" height="30" as="geometry" />
        </mxCell>
        <mxCell id="AWFBgo-DE84U1MAFSuaV-43" value="" style="endArrow=none;html=1;rounded=0;exitX=0.707;exitY=0.161;exitDx=0;exitDy=0;exitPerimeter=0;entryX=0.996;entryY=0.489;entryDx=0;entryDy=0;entryPerimeter=0;" parent="1" source="AWFBgo-DE84U1MAFSuaV-21" target="AWFBgo-DE84U1MAFSuaV-40" edge="1">
          <mxGeometry width="50" height="50" relative="1" as="geometry">
            <mxPoint x="970" y="2430" as="sourcePoint" />
            <mxPoint x="970" y="2140" as="targetPoint" />
            <Array as="points">
              <mxPoint x="970" y="2140" />
            </Array>
          </mxGeometry>
        </mxCell>
        <mxCell id="AWFBgo-DE84U1MAFSuaV-44" value="&lt;font style=&quot;font-size: 9px;&quot;&gt;&lt;font style=&quot;&quot;&gt;mostrarMensaje:&amp;nbsp;&lt;/font&gt;&lt;/font&gt;&lt;div&gt;&lt;font style=&quot;font-size: 9px;&quot;&gt;&lt;span style=&quot;background-color: initial;&quot;&gt;&quot;No hay conexión con la base de datos&quot;&lt;/span&gt;&lt;/font&gt;&lt;/div&gt;" style="text;html=1;align=center;verticalAlign=middle;resizable=0;points=[];autosize=1;strokeColor=none;fillColor=none;" parent="1" vertex="1">
          <mxGeometry x="760" y="2180" width="180" height="40" as="geometry" />
        </mxCell>
        <mxCell id="AWFBgo-DE84U1MAFSuaV-45" value="" style="ellipse;shape=umlControl;whiteSpace=wrap;html=1;fillColor=#FF6666;" parent="1" vertex="1">
          <mxGeometry x="517" y="2600" width="70" height="80" as="geometry" />
        </mxCell>
        <mxCell id="AWFBgo-DE84U1MAFSuaV-47" value="clic Cancelar" style="text;html=1;align=center;verticalAlign=middle;resizable=0;points=[];autosize=1;strokeColor=none;fillColor=none;" parent="1" vertex="1">
          <mxGeometry x="457" y="2552" width="90" height="30" as="geometry" />
        </mxCell>
        <mxCell id="AWFBgo-DE84U1MAFSuaV-48" value="" style="endArrow=none;html=1;rounded=0;exitX=0.535;exitY=0.894;exitDx=0;exitDy=0;exitPerimeter=0;entryX=-0.004;entryY=0.552;entryDx=0;entryDy=0;entryPerimeter=0;" parent="1" source="AWFBgo-DE84U1MAFSuaV-5" target="AWFBgo-DE84U1MAFSuaV-45" edge="1">
          <mxGeometry width="50" height="50" relative="1" as="geometry">
            <mxPoint x="220" y="2779" as="sourcePoint" />
            <mxPoint x="580" y="2911" as="targetPoint" />
            <Array as="points">
              <mxPoint x="230" y="2644" />
            </Array>
          </mxGeometry>
        </mxCell>
        <mxCell id="AWFBgo-DE84U1MAFSuaV-49" value="clic Cancelar" style="text;html=1;align=center;verticalAlign=middle;resizable=0;points=[];autosize=1;strokeColor=none;fillColor=none;" parent="1" vertex="1">
          <mxGeometry x="324" y="2620" width="90" height="30" as="geometry" />
        </mxCell>
        <mxCell id="AWFBgo-DE84U1MAFSuaV-50" value="&lt;font style=&quot;font-size: 9px;&quot;&gt;&lt;font style=&quot;&quot;&gt;mostrarMensaje:&amp;nbsp;&lt;/font&gt;&lt;/font&gt;&lt;div&gt;&lt;font style=&quot;font-size: 9px;&quot;&gt;&lt;span style=&quot;background-color: initial;&quot;&gt;&quot;¿Está seguro que deseas cancelar?&quot;&lt;/span&gt;&lt;/font&gt;&lt;/div&gt;" style="text;html=1;align=center;verticalAlign=middle;resizable=0;points=[];autosize=1;strokeColor=none;fillColor=none;" parent="1" vertex="1">
          <mxGeometry x="467" y="2680" width="170" height="40" as="geometry" />
        </mxCell>
        <mxCell id="AWFBgo-DE84U1MAFSuaV-51" value="" style="endArrow=none;html=1;rounded=0;entryX=-0.002;entryY=0.497;entryDx=0;entryDy=0;entryPerimeter=0;" parent="1" target="AWFBgo-DE84U1MAFSuaV-4" edge="1">
          <mxGeometry width="50" height="50" relative="1" as="geometry">
            <mxPoint x="100" y="2495" as="sourcePoint" />
            <mxPoint x="160" y="2490" as="targetPoint" />
          </mxGeometry>
        </mxCell>
        <mxCell id="AWFBgo-DE84U1MAFSuaV-53" value="Estudiante" style="shape=umlActor;verticalLabelPosition=bottom;verticalAlign=top;html=1;outlineConnect=0;" parent="1" vertex="1">
          <mxGeometry x="70" y="3202" width="30" height="60" as="geometry" />
        </mxCell>
        <mxCell id="AWFBgo-DE84U1MAFSuaV-59" value="" style="group" parent="1" vertex="1" connectable="0">
          <mxGeometry x="180" y="3190" width="145" height="92" as="geometry" />
        </mxCell>
        <mxCell id="AWFBgo-DE84U1MAFSuaV-60" value="" style="shape=umlBoundary;whiteSpace=wrap;html=1;fillColor=#99FFFF;" parent="AWFBgo-DE84U1MAFSuaV-59" vertex="1">
          <mxGeometry x="25" width="80" height="70" as="geometry" />
        </mxCell>
        <mxCell id="AWFBgo-DE84U1MAFSuaV-61" value="FXMLVerExpediente" style="text;html=1;align=center;verticalAlign=middle;resizable=0;points=[];autosize=1;strokeColor=none;fillColor=none;" parent="AWFBgo-DE84U1MAFSuaV-59" vertex="1">
          <mxGeometry y="62" width="130" height="30" as="geometry" />
        </mxCell>
        <mxCell id="AWFBgo-DE84U1MAFSuaV-62" value="&lt;font style=&quot;font-size: 8px;&quot;&gt;clic Consulta Expediente&lt;/font&gt;" style="text;html=1;align=center;verticalAlign=middle;resizable=0;points=[];autosize=1;strokeColor=none;fillColor=none;" parent="AWFBgo-DE84U1MAFSuaV-59" vertex="1">
          <mxGeometry x="-80" y="10" width="110" height="30" as="geometry" />
        </mxCell>
        <mxCell id="AWFBgo-DE84U1MAFSuaV-63" value="" style="endArrow=none;html=1;rounded=0;entryX=0.955;entryY=0.994;entryDx=0;entryDy=0;entryPerimeter=0;exitX=-0.008;exitY=0.994;exitDx=0;exitDy=0;exitPerimeter=0;" parent="AWFBgo-DE84U1MAFSuaV-59" source="AWFBgo-DE84U1MAFSuaV-62" target="AWFBgo-DE84U1MAFSuaV-62" edge="1">
          <mxGeometry width="50" height="50" relative="1" as="geometry">
            <mxPoint x="-50" y="90" as="sourcePoint" />
            <mxPoint y="40" as="targetPoint" />
          </mxGeometry>
        </mxCell>
        <mxCell id="AWFBgo-DE84U1MAFSuaV-64" value="recupera y muestra" style="ellipse;shape=umlControl;whiteSpace=wrap;html=1;fillColor=#99FFFF;" parent="1" vertex="1">
          <mxGeometry x="410" y="3190" width="70" height="80" as="geometry" />
        </mxCell>
        <mxCell id="AWFBgo-DE84U1MAFSuaV-65" value="" style="endArrow=none;html=1;rounded=0;entryX=-0.003;entryY=0.501;entryDx=0;entryDy=0;entryPerimeter=0;exitX=1.001;exitY=0.573;exitDx=0;exitDy=0;exitPerimeter=0;" parent="1" source="AWFBgo-DE84U1MAFSuaV-60" target="AWFBgo-DE84U1MAFSuaV-64" edge="1">
          <mxGeometry width="50" height="50" relative="1" as="geometry">
            <mxPoint x="290" y="3230" as="sourcePoint" />
            <mxPoint x="380" y="3260" as="targetPoint" />
          </mxGeometry>
        </mxCell>
        <mxCell id="AWFBgo-DE84U1MAFSuaV-66" value="&lt;font style=&quot;font-size: 6px;&quot;&gt;clic en Ver documentos entregados&lt;/font&gt;" style="text;html=1;align=center;verticalAlign=middle;resizable=0;points=[];autosize=1;strokeColor=none;fillColor=none;" parent="1" vertex="1">
          <mxGeometry x="285" y="3203" width="120" height="30" as="geometry" />
        </mxCell>
        <mxCell id="AWFBgo-DE84U1MAFSuaV-70" value="" style="group" parent="1" vertex="1" connectable="0">
          <mxGeometry x="547" y="3030" width="105" height="98" as="geometry" />
        </mxCell>
        <mxCell id="AWFBgo-DE84U1MAFSuaV-71" value="" style="ellipse;shape=umlEntity;whiteSpace=wrap;html=1;fillColor=#99FFFF;" parent="AWFBgo-DE84U1MAFSuaV-70" vertex="1">
          <mxGeometry x="20" width="60" height="60" as="geometry" />
        </mxCell>
        <mxCell id="AWFBgo-DE84U1MAFSuaV-72" value="DOCUMENTO&lt;div&gt;INICIAL&lt;/div&gt;" style="text;html=1;align=center;verticalAlign=middle;resizable=0;points=[];autosize=1;strokeColor=none;fillColor=none;" parent="AWFBgo-DE84U1MAFSuaV-70" vertex="1">
          <mxGeometry y="58" width="100" height="40" as="geometry" />
        </mxCell>
        <mxCell id="AWFBgo-DE84U1MAFSuaV-73" value="" style="group" parent="1" vertex="1" connectable="0">
          <mxGeometry x="547" y="3128" width="145" height="93" as="geometry" />
        </mxCell>
        <mxCell id="AWFBgo-DE84U1MAFSuaV-74" value="" style="ellipse;shape=umlEntity;whiteSpace=wrap;html=1;fillColor=#99FFFF;" parent="AWFBgo-DE84U1MAFSuaV-73" vertex="1">
          <mxGeometry x="20" width="60" height="60" as="geometry" />
        </mxCell>
        <mxCell id="AWFBgo-DE84U1MAFSuaV-75" value="REPORTE" style="text;html=1;align=center;verticalAlign=middle;resizable=0;points=[];autosize=1;strokeColor=none;fillColor=none;" parent="AWFBgo-DE84U1MAFSuaV-73" vertex="1">
          <mxGeometry x="10" y="63" width="80" height="30" as="geometry" />
        </mxCell>
        <mxCell id="AWFBgo-DE84U1MAFSuaV-77" value="" style="endArrow=none;html=1;rounded=0;exitX=0.71;exitY=0.162;exitDx=0;exitDy=0;exitPerimeter=0;entryX=0;entryY=0.5;entryDx=0;entryDy=0;" parent="1" source="AWFBgo-DE84U1MAFSuaV-64" target="AWFBgo-DE84U1MAFSuaV-71" edge="1">
          <mxGeometry width="50" height="50" relative="1" as="geometry">
            <mxPoint x="460" y="3190" as="sourcePoint" />
            <mxPoint x="510" y="3140" as="targetPoint" />
            <Array as="points">
              <mxPoint x="460" y="3060" />
            </Array>
          </mxGeometry>
        </mxCell>
        <mxCell id="AWFBgo-DE84U1MAFSuaV-78" value="" style="endArrow=none;html=1;rounded=0;exitX=0.85;exitY=0.251;exitDx=0;exitDy=0;exitPerimeter=0;entryX=0.012;entryY=0.359;entryDx=0;entryDy=0;entryPerimeter=0;" parent="1" source="AWFBgo-DE84U1MAFSuaV-64" target="AWFBgo-DE84U1MAFSuaV-74" edge="1">
          <mxGeometry width="50" height="50" relative="1" as="geometry">
            <mxPoint x="490" y="3220" as="sourcePoint" />
            <mxPoint x="540" y="3170" as="targetPoint" />
            <Array as="points">
              <mxPoint x="470" y="3150" />
            </Array>
          </mxGeometry>
        </mxCell>
        <mxCell id="AWFBgo-DE84U1MAFSuaV-79" value="" style="group" parent="1" vertex="1" connectable="0">
          <mxGeometry x="658.5" y="3199" width="145" height="92" as="geometry" />
        </mxCell>
        <mxCell id="AWFBgo-DE84U1MAFSuaV-80" value="" style="shape=umlBoundary;whiteSpace=wrap;html=1;fillColor=#99FFFF;" parent="AWFBgo-DE84U1MAFSuaV-79" vertex="1">
          <mxGeometry x="25" width="80" height="70" as="geometry" />
        </mxCell>
        <mxCell id="AWFBgo-DE84U1MAFSuaV-81" value="FXMLListaDocumentos" style="text;html=1;align=center;verticalAlign=middle;resizable=0;points=[];autosize=1;strokeColor=none;fillColor=none;" parent="AWFBgo-DE84U1MAFSuaV-79" vertex="1">
          <mxGeometry x="-10" y="62" width="150" height="30" as="geometry" />
        </mxCell>
        <mxCell id="AWFBgo-DE84U1MAFSuaV-84" value="" style="endArrow=none;html=1;rounded=0;entryX=-0.015;entryY=0.575;entryDx=0;entryDy=0;entryPerimeter=0;exitX=0.994;exitY=0.622;exitDx=0;exitDy=0;exitPerimeter=0;" parent="1" source="AWFBgo-DE84U1MAFSuaV-64" target="AWFBgo-DE84U1MAFSuaV-80" edge="1">
          <mxGeometry width="50" height="50" relative="1" as="geometry">
            <mxPoint x="540" y="3280" as="sourcePoint" />
            <mxPoint x="590" y="3230" as="targetPoint" />
          </mxGeometry>
        </mxCell>
        <mxCell id="AWFBgo-DE84U1MAFSuaV-85" value="muestra" style="ellipse;shape=umlControl;whiteSpace=wrap;html=1;fillColor=#99FFFF;" parent="1" vertex="1">
          <mxGeometry x="880" y="3190" width="70" height="80" as="geometry" />
        </mxCell>
        <mxCell id="AWFBgo-DE84U1MAFSuaV-86" value="" style="endArrow=none;html=1;rounded=0;entryX=-0.006;entryY=0.622;entryDx=0;entryDy=0;entryPerimeter=0;exitX=0.998;exitY=0.586;exitDx=0;exitDy=0;exitPerimeter=0;" parent="1" source="AWFBgo-DE84U1MAFSuaV-80" target="AWFBgo-DE84U1MAFSuaV-85" edge="1">
          <mxGeometry width="50" height="50" relative="1" as="geometry">
            <mxPoint x="810" y="3280" as="sourcePoint" />
            <mxPoint x="860" y="3230" as="targetPoint" />
          </mxGeometry>
        </mxCell>
        <mxCell id="AWFBgo-DE84U1MAFSuaV-87" value="&lt;font style=&quot;font-size: 6px;&quot;&gt;selecciona archivo y clic en Aceptar&lt;/font&gt;" style="text;html=1;align=center;verticalAlign=middle;resizable=0;points=[];autosize=1;strokeColor=none;fillColor=none;" parent="1" vertex="1">
          <mxGeometry x="760" y="3217" width="120" height="30" as="geometry" />
        </mxCell>
        <mxCell id="AWFBgo-DE84U1MAFSuaV-88" value="" style="group" parent="1" vertex="1" connectable="0">
          <mxGeometry x="1010" y="3200" width="145" height="92" as="geometry" />
        </mxCell>
        <mxCell id="AWFBgo-DE84U1MAFSuaV-89" value="" style="shape=umlBoundary;whiteSpace=wrap;html=1;fillColor=#99FFFF;" parent="AWFBgo-DE84U1MAFSuaV-88" vertex="1">
          <mxGeometry x="25" width="80" height="70" as="geometry" />
        </mxCell>
        <mxCell id="AWFBgo-DE84U1MAFSuaV-90" value="FXMLVerDocumentos" style="text;html=1;align=center;verticalAlign=middle;resizable=0;points=[];autosize=1;strokeColor=none;fillColor=none;" parent="AWFBgo-DE84U1MAFSuaV-88" vertex="1">
          <mxGeometry x="-5" y="62" width="140" height="30" as="geometry" />
        </mxCell>
        <mxCell id="AWFBgo-DE84U1MAFSuaV-91" value="" style="endArrow=none;html=1;rounded=0;entryX=-0.006;entryY=0.563;entryDx=0;entryDy=0;entryPerimeter=0;exitX=0.994;exitY=0.622;exitDx=0;exitDy=0;exitPerimeter=0;" parent="1" source="AWFBgo-DE84U1MAFSuaV-85" target="AWFBgo-DE84U1MAFSuaV-89" edge="1">
          <mxGeometry width="50" height="50" relative="1" as="geometry">
            <mxPoint x="950" y="3320" as="sourcePoint" />
            <mxPoint x="1000" y="3270" as="targetPoint" />
          </mxGeometry>
        </mxCell>
        <mxCell id="AWFBgo-DE84U1MAFSuaV-92" value="" style="endArrow=none;html=1;rounded=0;entryX=0.534;entryY=0.968;entryDx=0;entryDy=0;entryPerimeter=0;exitX=0.863;exitY=0.866;exitDx=0;exitDy=0;exitPerimeter=0;" parent="1" source="AWFBgo-DE84U1MAFSuaV-64" target="AWFBgo-DE84U1MAFSuaV-90" edge="1">
          <mxGeometry width="50" height="50" relative="1" as="geometry">
            <mxPoint x="650" y="3230" as="sourcePoint" />
            <mxPoint x="1100" y="3360" as="targetPoint" />
            <Array as="points">
              <mxPoint x="470" y="3390" />
              <mxPoint x="1080" y="3390" />
            </Array>
          </mxGeometry>
        </mxCell>
        <mxCell id="AWFBgo-DE84U1MAFSuaV-93" value="clic Cerrar" style="text;html=1;align=center;verticalAlign=middle;resizable=0;points=[];autosize=1;strokeColor=none;fillColor=none;" parent="1" vertex="1">
          <mxGeometry x="860" y="3368" width="80" height="30" as="geometry" />
        </mxCell>
        <mxCell id="AWFBgo-DE84U1MAFSuaV-94" value="" style="endArrow=none;html=1;rounded=0;entryX=0.435;entryY=1.008;entryDx=0;entryDy=0;entryPerimeter=0;exitX=0.008;exitY=0.664;exitDx=0;exitDy=0;exitPerimeter=0;" parent="1" source="AWFBgo-DE84U1MAFSuaV-98" target="AWFBgo-DE84U1MAFSuaV-64" edge="1">
          <mxGeometry width="50" height="50" relative="1" as="geometry">
            <mxPoint x="480" y="3560" as="sourcePoint" />
            <mxPoint x="450" y="3290" as="targetPoint" />
            <Array as="points">
              <mxPoint x="440" y="3560" />
            </Array>
          </mxGeometry>
        </mxCell>
        <mxCell id="AWFBgo-DE84U1MAFSuaV-95" value="" style="group" parent="1" vertex="1" connectable="0">
          <mxGeometry x="590" y="3410" width="100" height="93" as="geometry" />
        </mxCell>
        <mxCell id="AWFBgo-DE84U1MAFSuaV-96" value="" style="ellipse;shape=umlEntity;whiteSpace=wrap;html=1;fillColor=#FF9999;" parent="AWFBgo-DE84U1MAFSuaV-95" vertex="1">
          <mxGeometry x="20" width="60" height="60" as="geometry" />
        </mxCell>
        <mxCell id="AWFBgo-DE84U1MAFSuaV-97" value="EXPEDIENTE" style="text;html=1;align=center;verticalAlign=middle;resizable=0;points=[];autosize=1;strokeColor=none;fillColor=none;" parent="AWFBgo-DE84U1MAFSuaV-95" vertex="1">
          <mxGeometry y="63" width="100" height="30" as="geometry" />
        </mxCell>
        <mxCell id="AWFBgo-DE84U1MAFSuaV-98" value="recupera y muestra" style="ellipse;shape=umlControl;whiteSpace=wrap;html=1;fillColor=#FF9999;" parent="1" vertex="1">
          <mxGeometry x="480" y="3507" width="70" height="80" as="geometry" />
        </mxCell>
        <mxCell id="AWFBgo-DE84U1MAFSuaV-99" value="" style="endArrow=none;html=1;rounded=0;exitX=0.279;exitY=0.166;exitDx=0;exitDy=0;exitPerimeter=0;entryX=0;entryY=0.5;entryDx=0;entryDy=0;" parent="1" source="AWFBgo-DE84U1MAFSuaV-98" target="AWFBgo-DE84U1MAFSuaV-96" edge="1">
          <mxGeometry width="50" height="50" relative="1" as="geometry">
            <mxPoint x="540" y="3440" as="sourcePoint" />
            <mxPoint x="590" y="3390" as="targetPoint" />
            <Array as="points">
              <mxPoint x="500" y="3440" />
            </Array>
          </mxGeometry>
        </mxCell>
        <mxCell id="AWFBgo-DE84U1MAFSuaV-100" value="" style="group" parent="1" vertex="1" connectable="0">
          <mxGeometry x="660" y="3520" width="145" height="92" as="geometry" />
        </mxCell>
        <mxCell id="AWFBgo-DE84U1MAFSuaV-101" value="" style="shape=umlBoundary;whiteSpace=wrap;html=1;fillColor=#FF9999;" parent="AWFBgo-DE84U1MAFSuaV-100" vertex="1">
          <mxGeometry x="25" width="80" height="70" as="geometry" />
        </mxCell>
        <mxCell id="AWFBgo-DE84U1MAFSuaV-102" value="FXMLConsultarHoras" style="text;html=1;align=center;verticalAlign=middle;resizable=0;points=[];autosize=1;strokeColor=none;fillColor=none;" parent="AWFBgo-DE84U1MAFSuaV-100" vertex="1">
          <mxGeometry x="-5" y="62" width="140" height="30" as="geometry" />
        </mxCell>
        <mxCell id="AWFBgo-DE84U1MAFSuaV-103" value="" style="endArrow=none;html=1;rounded=0;exitX=0.986;exitY=0.659;exitDx=0;exitDy=0;exitPerimeter=0;entryX=0.006;entryY=0.575;entryDx=0;entryDy=0;entryPerimeter=0;" parent="1" source="AWFBgo-DE84U1MAFSuaV-98" target="AWFBgo-DE84U1MAFSuaV-101" edge="1">
          <mxGeometry width="50" height="50" relative="1" as="geometry">
            <mxPoint x="580" y="3610" as="sourcePoint" />
            <mxPoint x="630" y="3560" as="targetPoint" />
          </mxGeometry>
        </mxCell>
        <mxCell id="AWFBgo-DE84U1MAFSuaV-104" value="" style="ellipse;shape=umlControl;whiteSpace=wrap;html=1;fillColor=#FF6666;" parent="1" vertex="1">
          <mxGeometry x="685" y="3760" width="70" height="80" as="geometry" />
        </mxCell>
        <mxCell id="AWFBgo-DE84U1MAFSuaV-105" value="&lt;font style=&quot;font-size: 9px;&quot;&gt;&lt;font style=&quot;&quot;&gt;mostrarMensaje:&amp;nbsp;&lt;/font&gt;&lt;/font&gt;&lt;div&gt;&lt;font style=&quot;font-size: 9px;&quot;&gt;&lt;span style=&quot;background-color: initial;&quot;&gt;&quot;No hay conexión con la base de datos&quot;&lt;/span&gt;&lt;/font&gt;&lt;/div&gt;" style="text;html=1;align=center;verticalAlign=middle;resizable=0;points=[];autosize=1;strokeColor=none;fillColor=none;" parent="1" vertex="1">
          <mxGeometry x="625" y="3840" width="180" height="40" as="geometry" />
        </mxCell>
        <mxCell id="AWFBgo-DE84U1MAFSuaV-106" value="" style="endArrow=none;html=1;rounded=0;entryX=0.284;entryY=0.965;entryDx=0;entryDy=0;entryPerimeter=0;exitX=0.014;exitY=0.498;exitDx=0;exitDy=0;exitPerimeter=0;" parent="1" source="AWFBgo-DE84U1MAFSuaV-104" target="AWFBgo-DE84U1MAFSuaV-64" edge="1">
          <mxGeometry width="50" height="50" relative="1" as="geometry">
            <mxPoint x="630" y="3660" as="sourcePoint" />
            <mxPoint x="420" y="3330" as="targetPoint" />
            <Array as="points">
              <mxPoint x="430" y="3800" />
            </Array>
          </mxGeometry>
        </mxCell>
        <mxCell id="AWFBgo-DE84U1MAFSuaV-107" value="" style="endArrow=none;html=1;rounded=0;entryX=0.575;entryY=0.991;entryDx=0;entryDy=0;entryPerimeter=0;exitX=0.355;exitY=0.154;exitDx=0;exitDy=0;exitPerimeter=0;" parent="1" source="AWFBgo-DE84U1MAFSuaV-104" target="AWFBgo-DE84U1MAFSuaV-98" edge="1">
          <mxGeometry width="50" height="50" relative="1" as="geometry">
            <mxPoint x="600.4545454545455" y="3730" as="sourcePoint" />
            <mxPoint x="550" y="3680" as="targetPoint" />
            <Array as="points">
              <mxPoint x="710" y="3720" />
              <mxPoint x="520" y="3720" />
            </Array>
          </mxGeometry>
        </mxCell>
        <mxCell id="58G1n0Uc8jA8VNhRcyc1-1" value="Coordinador" style="shape=umlActor;verticalLabelPosition=bottom;verticalAlign=top;html=1;outlineConnect=0;" vertex="1" parent="1">
          <mxGeometry x="70" y="4170" width="30" height="60" as="geometry" />
        </mxCell>
        <mxCell id="58G1n0Uc8jA8VNhRcyc1-5" value="" style="group" vertex="1" connectable="0" parent="1">
          <mxGeometry x="189.5" y="4165" width="180" height="92" as="geometry" />
        </mxCell>
        <mxCell id="58G1n0Uc8jA8VNhRcyc1-6" value="" style="shape=umlBoundary;whiteSpace=wrap;html=1;fillColor=#99FFFF;" vertex="1" parent="58G1n0Uc8jA8VNhRcyc1-5">
          <mxGeometry x="25" width="80" height="70" as="geometry" />
        </mxCell>
        <mxCell id="58G1n0Uc8jA8VNhRcyc1-7" value="FXMLFormularioRegistroResponsable" style="text;html=1;align=center;verticalAlign=middle;resizable=0;points=[];autosize=1;strokeColor=none;fillColor=none;" vertex="1" parent="58G1n0Uc8jA8VNhRcyc1-5">
          <mxGeometry x="-50" y="62" width="230" height="30" as="geometry" />
        </mxCell>
        <mxCell id="58G1n0Uc8jA8VNhRcyc1-8" value="&lt;font style=&quot;font-size: 8px;&quot;&gt;clic Registrar&amp;nbsp;&lt;/font&gt;&lt;div&gt;&lt;font style=&quot;font-size: 8px;&quot;&gt;Responsable de Proyecto&lt;/font&gt;&lt;/div&gt;" style="text;html=1;align=center;verticalAlign=middle;resizable=0;points=[];autosize=1;strokeColor=none;fillColor=none;" vertex="1" parent="1">
          <mxGeometry x="100" y="4160" width="120" height="40" as="geometry" />
        </mxCell>
        <mxCell id="58G1n0Uc8jA8VNhRcyc1-9" value="" style="endArrow=none;html=1;rounded=0;entryX=0.955;entryY=0.994;entryDx=0;entryDy=0;entryPerimeter=0;exitX=-0.008;exitY=0.994;exitDx=0;exitDy=0;exitPerimeter=0;" edge="1" parent="1" source="58G1n0Uc8jA8VNhRcyc1-8" target="58G1n0Uc8jA8VNhRcyc1-8">
          <mxGeometry width="50" height="50" relative="1" as="geometry">
            <mxPoint x="160" y="4250" as="sourcePoint" />
            <mxPoint x="210" y="4200" as="targetPoint" />
          </mxGeometry>
        </mxCell>
        <mxCell id="58G1n0Uc8jA8VNhRcyc1-10" value="valida los datos y muestra" style="ellipse;shape=umlControl;whiteSpace=wrap;html=1;fillColor=#99FFFF;" vertex="1" parent="1">
          <mxGeometry x="533" y="4160" width="70" height="80" as="geometry" />
        </mxCell>
        <mxCell id="58G1n0Uc8jA8VNhRcyc1-11" value="" style="endArrow=none;html=1;rounded=0;exitX=1.006;exitY=0.497;exitDx=0;exitDy=0;exitPerimeter=0;entryX=0.004;entryY=0.498;entryDx=0;entryDy=0;entryPerimeter=0;" edge="1" parent="1" source="58G1n0Uc8jA8VNhRcyc1-6" target="58G1n0Uc8jA8VNhRcyc1-10">
          <mxGeometry width="50" height="50" relative="1" as="geometry">
            <mxPoint x="390" y="4220" as="sourcePoint" />
            <mxPoint x="440" y="4170" as="targetPoint" />
          </mxGeometry>
        </mxCell>
        <mxCell id="58G1n0Uc8jA8VNhRcyc1-12" value="llena el formulario y clic en Continuar" style="text;html=1;align=center;verticalAlign=middle;resizable=0;points=[];autosize=1;strokeColor=none;fillColor=none;" vertex="1" parent="1">
          <mxGeometry x="290" y="4178" width="220" height="30" as="geometry" />
        </mxCell>
        <mxCell id="58G1n0Uc8jA8VNhRcyc1-13" value="" style="group" vertex="1" connectable="0" parent="1">
          <mxGeometry x="695" y="4165" width="145" height="92" as="geometry" />
        </mxCell>
        <mxCell id="58G1n0Uc8jA8VNhRcyc1-14" value="" style="shape=umlBoundary;whiteSpace=wrap;html=1;fillColor=#99FFFF;" vertex="1" parent="58G1n0Uc8jA8VNhRcyc1-13">
          <mxGeometry x="25" width="80" height="70" as="geometry" />
        </mxCell>
        <mxCell id="58G1n0Uc8jA8VNhRcyc1-15" value="FXMLConfirmaDatos" style="text;html=1;align=center;verticalAlign=middle;resizable=0;points=[];autosize=1;strokeColor=none;fillColor=none;" vertex="1" parent="58G1n0Uc8jA8VNhRcyc1-13">
          <mxGeometry x="-5" y="62" width="140" height="30" as="geometry" />
        </mxCell>
        <mxCell id="58G1n0Uc8jA8VNhRcyc1-16" value="" style="endArrow=none;html=1;rounded=0;exitX=0.998;exitY=0.498;exitDx=0;exitDy=0;exitPerimeter=0;entryX=0.025;entryY=0.497;entryDx=0;entryDy=0;entryPerimeter=0;" edge="1" parent="1" source="58G1n0Uc8jA8VNhRcyc1-10" target="58G1n0Uc8jA8VNhRcyc1-14">
          <mxGeometry width="50" height="50" relative="1" as="geometry">
            <mxPoint x="630" y="4250" as="sourcePoint" />
            <mxPoint x="680" y="4200" as="targetPoint" />
          </mxGeometry>
        </mxCell>
        <mxCell id="58G1n0Uc8jA8VNhRcyc1-18" value="&lt;font style=&quot;font-size: 6px;&quot;&gt;muestra mensaje &quot;Responsable registrado con éxito&quot;&lt;/font&gt;" style="ellipse;shape=umlControl;whiteSpace=wrap;html=1;fillColor=#99FFFF;" vertex="1" parent="1">
          <mxGeometry x="1124" y="4160" width="70" height="80" as="geometry" />
        </mxCell>
        <mxCell id="58G1n0Uc8jA8VNhRcyc1-19" value="" style="endArrow=none;html=1;rounded=0;exitX=1.004;exitY=0.49;exitDx=0;exitDy=0;exitPerimeter=0;entryX=0.014;entryY=0.504;entryDx=0;entryDy=0;entryPerimeter=0;" edge="1" parent="1" source="58G1n0Uc8jA8VNhRcyc1-14" target="58G1n0Uc8jA8VNhRcyc1-17">
          <mxGeometry width="50" height="50" relative="1" as="geometry">
            <mxPoint x="850" y="4310" as="sourcePoint" />
            <mxPoint x="900" y="4260" as="targetPoint" />
          </mxGeometry>
        </mxCell>
        <mxCell id="58G1n0Uc8jA8VNhRcyc1-20" value="" style="endArrow=none;html=1;rounded=0;entryX=0.008;entryY=0.498;entryDx=0;entryDy=0;entryPerimeter=0;" edge="1" parent="1" source="58G1n0Uc8jA8VNhRcyc1-17" target="58G1n0Uc8jA8VNhRcyc1-18">
          <mxGeometry width="50" height="50" relative="1" as="geometry">
            <mxPoint x="970" y="4200" as="sourcePoint" />
            <mxPoint x="1040" y="4240" as="targetPoint" />
          </mxGeometry>
        </mxCell>
        <mxCell id="58G1n0Uc8jA8VNhRcyc1-21" value="" style="endArrow=none;html=1;rounded=0;entryX=0.008;entryY=0.498;entryDx=0;entryDy=0;entryPerimeter=0;" edge="1" parent="1" target="58G1n0Uc8jA8VNhRcyc1-17">
          <mxGeometry width="50" height="50" relative="1" as="geometry">
            <mxPoint x="970" y="4200" as="sourcePoint" />
            <mxPoint x="1125" y="4200" as="targetPoint" />
          </mxGeometry>
        </mxCell>
        <mxCell id="58G1n0Uc8jA8VNhRcyc1-17" value="guarda datos en BD" style="ellipse;shape=umlControl;whiteSpace=wrap;html=1;fillColor=#99FFFF;" vertex="1" parent="1">
          <mxGeometry x="950" y="4160" width="70" height="80" as="geometry" />
        </mxCell>
        <mxCell id="58G1n0Uc8jA8VNhRcyc1-22" value="clic en Continuar" style="text;html=1;align=center;verticalAlign=middle;resizable=0;points=[];autosize=1;strokeColor=none;fillColor=none;" vertex="1" parent="1">
          <mxGeometry x="810" y="4178" width="110" height="30" as="geometry" />
        </mxCell>
        <mxCell id="58G1n0Uc8jA8VNhRcyc1-23" value="&lt;font style=&quot;font-size: 8px;&quot;&gt;muestra mensaje y remarca campos&lt;/font&gt;" style="ellipse;shape=umlControl;whiteSpace=wrap;html=1;fillColor=#FF6666;" vertex="1" parent="1">
          <mxGeometry x="429.5" y="4325" width="70" height="80" as="geometry" />
        </mxCell>
        <mxCell id="58G1n0Uc8jA8VNhRcyc1-24" value="" style="endArrow=none;html=1;rounded=0;entryX=0.389;entryY=0.989;entryDx=0;entryDy=0;entryPerimeter=0;exitX=0.362;exitY=0.138;exitDx=0;exitDy=0;exitPerimeter=0;" edge="1" parent="1" source="58G1n0Uc8jA8VNhRcyc1-23" target="58G1n0Uc8jA8VNhRcyc1-10">
          <mxGeometry width="50" height="50" relative="1" as="geometry">
            <mxPoint x="478.5" y="4323" as="sourcePoint" />
            <mxPoint x="564.5" y="4240" as="targetPoint" />
            <Array as="points">
              <mxPoint x="454.5" y="4261" />
              <mxPoint x="560" y="4260" />
            </Array>
          </mxGeometry>
        </mxCell>
        <mxCell id="58G1n0Uc8jA8VNhRcyc1-25" value="&lt;font style=&quot;font-size: 8px;&quot;&gt;datos inválidos o incompletos&lt;/font&gt;" style="text;html=1;align=center;verticalAlign=middle;resizable=0;points=[];autosize=1;strokeColor=none;fillColor=none;" vertex="1" parent="1">
          <mxGeometry x="444.5" y="4253" width="130" height="30" as="geometry" />
        </mxCell>
        <mxCell id="58G1n0Uc8jA8VNhRcyc1-26" value="" style="endArrow=none;html=1;rounded=0;entryX=0.608;entryY=1.078;entryDx=0;entryDy=0;entryPerimeter=0;exitX=0.013;exitY=0.439;exitDx=0;exitDy=0;exitPerimeter=0;" edge="1" parent="1" source="58G1n0Uc8jA8VNhRcyc1-23" target="58G1n0Uc8jA8VNhRcyc1-7">
          <mxGeometry width="50" height="50" relative="1" as="geometry">
            <mxPoint x="270" y="4420" as="sourcePoint" />
            <mxPoint x="320" y="4370" as="targetPoint" />
            <Array as="points">
              <mxPoint x="280" y="4360" />
            </Array>
          </mxGeometry>
        </mxCell>
        <mxCell id="58G1n0Uc8jA8VNhRcyc1-27" value="&lt;font style=&quot;font-size: 6px;&quot;&gt;muestra mensaje&quot;Estás seguro que quieres salir?&quot;&lt;/font&gt;" style="ellipse;shape=umlControl;whiteSpace=wrap;html=1;fillColor=#FF6666;" vertex="1" parent="1">
          <mxGeometry x="575" y="4325" width="70" height="80" as="geometry" />
        </mxCell>
        <mxCell id="58G1n0Uc8jA8VNhRcyc1-28" value="&lt;font style=&quot;font-size: 8px;&quot;&gt;¿clic en Aceptar?&lt;/font&gt;" style="ellipse;shape=umlControl;whiteSpace=wrap;html=1;fillColor=#FF6666;" vertex="1" parent="1">
          <mxGeometry x="570" y="4450" width="70" height="80" as="geometry" />
        </mxCell>
        <mxCell id="58G1n0Uc8jA8VNhRcyc1-30" value="" style="endArrow=none;html=1;rounded=0;exitX=0.428;exitY=0.11;exitDx=0;exitDy=0;exitPerimeter=0;entryX=0.36;entryY=0.98;entryDx=0;entryDy=0;entryPerimeter=0;" edge="1" parent="1" source="58G1n0Uc8jA8VNhRcyc1-28" target="58G1n0Uc8jA8VNhRcyc1-27">
          <mxGeometry width="50" height="50" relative="1" as="geometry">
            <mxPoint x="580" y="4470" as="sourcePoint" />
            <mxPoint x="590" y="4400" as="targetPoint" />
          </mxGeometry>
        </mxCell>
        <mxCell id="58G1n0Uc8jA8VNhRcyc1-31" value="" style="endArrow=none;html=1;rounded=0;entryX=0.002;entryY=0.62;entryDx=0;entryDy=0;entryPerimeter=0;exitX=0.567;exitY=1.083;exitDx=0;exitDy=0;exitPerimeter=0;" edge="1" parent="1" source="58G1n0Uc8jA8VNhRcyc1-7" target="58G1n0Uc8jA8VNhRcyc1-28">
          <mxGeometry width="50" height="50" relative="1" as="geometry">
            <mxPoint x="490" y="4560" as="sourcePoint" />
            <mxPoint x="540" y="4510" as="targetPoint" />
            <Array as="points">
              <mxPoint x="270" y="4500" />
            </Array>
          </mxGeometry>
        </mxCell>
        <mxCell id="58G1n0Uc8jA8VNhRcyc1-32" value="NO" style="text;html=1;align=center;verticalAlign=middle;resizable=0;points=[];autosize=1;strokeColor=none;fillColor=none;" vertex="1" parent="1">
          <mxGeometry x="510" y="4478" width="40" height="30" as="geometry" />
        </mxCell>
        <mxCell id="58G1n0Uc8jA8VNhRcyc1-33" value="" style="endArrow=none;html=1;rounded=0;exitX=0.345;exitY=0.14;exitDx=0;exitDy=0;exitPerimeter=0;entryX=0.957;entryY=0.751;entryDx=0;entryDy=0;entryPerimeter=0;" edge="1" parent="1" source="58G1n0Uc8jA8VNhRcyc1-27" target="58G1n0Uc8jA8VNhRcyc1-10">
          <mxGeometry width="50" height="50" relative="1" as="geometry">
            <mxPoint x="580" y="4320" as="sourcePoint" />
            <mxPoint x="600" y="4230" as="targetPoint" />
          </mxGeometry>
        </mxCell>
        <mxCell id="58G1n0Uc8jA8VNhRcyc1-34" value="&lt;font style=&quot;font-size: 8px;&quot;&gt;Regresa&lt;/font&gt;" style="ellipse;shape=umlControl;whiteSpace=wrap;html=1;fillColor=#FF6666;" vertex="1" parent="1">
          <mxGeometry x="950" y="4520" width="70" height="80" as="geometry" />
        </mxCell>
        <mxCell id="58G1n0Uc8jA8VNhRcyc1-35" value="" style="endArrow=none;html=1;rounded=0;entryX=0.723;entryY=0.952;entryDx=0;entryDy=0;entryPerimeter=0;exitX=0.716;exitY=0.176;exitDx=0;exitDy=0;exitPerimeter=0;" edge="1" parent="1" source="58G1n0Uc8jA8VNhRcyc1-34" target="58G1n0Uc8jA8VNhRcyc1-17">
          <mxGeometry width="50" height="50" relative="1" as="geometry">
            <mxPoint x="950" y="4380" as="sourcePoint" />
            <mxPoint x="1000" y="4330" as="targetPoint" />
          </mxGeometry>
        </mxCell>
        <mxCell id="58G1n0Uc8jA8VNhRcyc1-36" value="" style="endArrow=none;html=1;rounded=0;entryX=0.439;entryY=1.055;entryDx=0;entryDy=0;entryPerimeter=0;exitX=0.004;exitY=0.509;exitDx=0;exitDy=0;exitPerimeter=0;" edge="1" parent="1" source="58G1n0Uc8jA8VNhRcyc1-34" target="58G1n0Uc8jA8VNhRcyc1-7">
          <mxGeometry width="50" height="50" relative="1" as="geometry">
            <mxPoint x="590" y="4570" as="sourcePoint" />
            <mxPoint x="250" y="4320" as="targetPoint" />
            <Array as="points">
              <mxPoint x="240" y="4560" />
            </Array>
          </mxGeometry>
        </mxCell>
      </root>
    </mxGraphModel>
  </diagram>
</mxfile>
